<?xml version="1.0" encoding="UTF-8"?>
<svg xmlns="http://www.w3.org/2000/svg" xmlns:xlink="http://www.w3.org/1999/xlink" width="24" height="24" viewBox="0 0 24 24">
<defs>
<radialGradient id="radial-pattern-0" gradientUnits="userSpaceOnUse" cx="0" cy="0" fx="0" fy="0" r="1770.555013" gradientTransform="matrix(0.999986, -0.00531547, 0.00531547, 0.999986, 1398, 1398)">
<stop offset="0" stop-color="rgb(96.322632%, 96.322632%, 96.322632%)" stop-opacity="1"/>
<stop offset="0.015625" stop-color="rgb(96.064758%, 96.064758%, 96.064758%)" stop-opacity="1"/>
<stop offset="0.0273438" stop-color="rgb(95.845032%, 95.845032%, 95.845032%)" stop-opacity="1"/>
<stop offset="0.0390625" stop-color="rgb(95.623779%, 95.623779%, 95.623779%)" stop-opacity="1"/>
<stop offset="0.0507812" stop-color="rgb(95.402527%, 95.402527%, 95.402527%)" stop-opacity="1"/>
<stop offset="0.0625" stop-color="rgb(95.1828%, 95.1828%, 95.1828%)" stop-opacity="1"/>
<stop offset="0.0742188" stop-color="rgb(94.961548%, 94.961548%, 94.961548%)" stop-opacity="1"/>
<stop offset="0.0859375" stop-color="rgb(94.741821%, 94.741821%, 94.741821%)" stop-opacity="1"/>
<stop offset="0.0976562" stop-color="rgb(94.520569%, 94.520569%, 94.520569%)" stop-opacity="1"/>
<stop offset="0.109375" stop-color="rgb(94.300842%, 94.300842%, 94.300842%)" stop-opacity="1"/>
<stop offset="0.121094" stop-color="rgb(94.07959%, 94.07959%, 94.07959%)" stop-opacity="1"/>
<stop offset="0.132812" stop-color="rgb(93.859863%, 93.859863%, 93.859863%)" stop-opacity="1"/>
<stop offset="0.144531" stop-color="rgb(93.638611%, 93.638611%, 93.638611%)" stop-opacity="1"/>
<stop offset="0.15625" stop-color="rgb(93.417358%, 93.417358%, 93.417358%)" stop-opacity="1"/>
<stop offset="0.167969" stop-color="rgb(93.197632%, 93.197632%, 93.197632%)" stop-opacity="1"/>
<stop offset="0.179688" stop-color="rgb(92.976379%, 92.976379%, 92.976379%)" stop-opacity="1"/>
<stop offset="0.191406" stop-color="rgb(92.756653%, 92.756653%, 92.756653%)" stop-opacity="1"/>
<stop offset="0.203125" stop-color="rgb(92.5354%, 92.5354%, 92.5354%)" stop-opacity="1"/>
<stop offset="0.214844" stop-color="rgb(92.315674%, 92.315674%, 92.315674%)" stop-opacity="1"/>
<stop offset="0.226562" stop-color="rgb(92.094421%, 92.094421%, 92.094421%)" stop-opacity="1"/>
<stop offset="0.238281" stop-color="rgb(91.873169%, 91.873169%, 91.873169%)" stop-opacity="1"/>
<stop offset="0.25" stop-color="rgb(91.653442%, 91.653442%, 91.653442%)" stop-opacity="1"/>
<stop offset="0.261719" stop-color="rgb(91.358948%, 91.358948%, 91.358948%)" stop-opacity="1"/>
<stop offset="0.28125" stop-color="rgb(90.991211%, 90.991211%, 90.991211%)" stop-opacity="1"/>
<stop offset="0.300781" stop-color="rgb(90.623474%, 90.623474%, 90.623474%)" stop-opacity="1"/>
<stop offset="0.320312" stop-color="rgb(90.255737%, 90.255737%, 90.255737%)" stop-opacity="1"/>
<stop offset="0.339844" stop-color="rgb(89.888%, 89.888%, 89.888%)" stop-opacity="1"/>
<stop offset="0.359375" stop-color="rgb(89.520264%, 89.520264%, 89.520264%)" stop-opacity="1"/>
<stop offset="0.378906" stop-color="rgb(89.189148%, 89.189148%, 89.189148%)" stop-opacity="1"/>
<stop offset="0.394531" stop-color="rgb(88.896179%, 88.896179%, 88.896179%)" stop-opacity="1"/>
<stop offset="0.410156" stop-color="rgb(88.601685%, 88.601685%, 88.601685%)" stop-opacity="1"/>
<stop offset="0.425781" stop-color="rgb(88.30719%, 88.30719%, 88.30719%)" stop-opacity="1"/>
<stop offset="0.441406" stop-color="rgb(88.012695%, 88.012695%, 88.012695%)" stop-opacity="1"/>
<stop offset="0.457031" stop-color="rgb(87.719727%, 87.719727%, 87.719727%)" stop-opacity="1"/>
<stop offset="0.472656" stop-color="rgb(87.425232%, 87.425232%, 87.425232%)" stop-opacity="1"/>
<stop offset="0.488281" stop-color="rgb(87.130737%, 87.130737%, 87.130737%)" stop-opacity="1"/>
<stop offset="0.503906" stop-color="rgb(86.87439%, 86.87439%, 86.87439%)" stop-opacity="1"/>
<stop offset="0.515625" stop-color="rgb(86.653137%, 86.653137%, 86.653137%)" stop-opacity="1"/>
<stop offset="0.527344" stop-color="rgb(86.433411%, 86.433411%, 86.433411%)" stop-opacity="1"/>
<stop offset="0.539062" stop-color="rgb(86.212158%, 86.212158%, 86.212158%)" stop-opacity="1"/>
<stop offset="0.550781" stop-color="rgb(85.990906%, 85.990906%, 85.990906%)" stop-opacity="1"/>
<stop offset="0.5625" stop-color="rgb(85.771179%, 85.771179%, 85.771179%)" stop-opacity="1"/>
<stop offset="0.574219" stop-color="rgb(85.549927%, 85.549927%, 85.549927%)" stop-opacity="1"/>
<stop offset="0.585938" stop-color="rgb(85.3302%, 85.3302%, 85.3302%)" stop-opacity="1"/>
<stop offset="0.597656" stop-color="rgb(85.108948%, 85.108948%, 85.108948%)" stop-opacity="1"/>
<stop offset="0.609375" stop-color="rgb(84.889221%, 84.889221%, 84.889221%)" stop-opacity="1"/>
<stop offset="0.621094" stop-color="rgb(84.667969%, 84.667969%, 84.667969%)" stop-opacity="1"/>
<stop offset="0.632812" stop-color="rgb(84.373474%, 84.373474%, 84.373474%)" stop-opacity="1"/>
<stop offset="0.652344" stop-color="rgb(84.005737%, 84.005737%, 84.005737%)" stop-opacity="1"/>
<stop offset="0.671875" stop-color="rgb(83.638%, 83.638%, 83.638%)" stop-opacity="1"/>
<stop offset="0.691406" stop-color="rgb(83.306885%, 83.306885%, 83.306885%)" stop-opacity="1"/>
<stop offset="0.707031" stop-color="rgb(83.013916%, 83.013916%, 83.013916%)" stop-opacity="1"/>
<stop offset="0.722656" stop-color="rgb(82.719421%, 82.719421%, 82.719421%)" stop-opacity="1"/>
<stop offset="0.738281" stop-color="rgb(82.424927%, 82.424927%, 82.424927%)" stop-opacity="1"/>
<stop offset="0.753906" stop-color="rgb(82.168579%, 82.168579%, 82.168579%)" stop-opacity="1"/>
<stop offset="0.765625" stop-color="rgb(81.947327%, 81.947327%, 81.947327%)" stop-opacity="1"/>
<stop offset="0.777344" stop-color="rgb(81.726074%, 81.726074%, 81.726074%)" stop-opacity="1"/>
<stop offset="0.789062" stop-color="rgb(81.506348%, 81.506348%, 81.506348%)" stop-opacity="1"/>
<stop offset="0.800781" stop-color="rgb(81.285095%, 81.285095%, 81.285095%)" stop-opacity="1"/>
<stop offset="0.8125" stop-color="rgb(81.065369%, 81.065369%, 81.065369%)" stop-opacity="1"/>
<stop offset="0.824219" stop-color="rgb(80.770874%, 80.770874%, 80.770874%)" stop-opacity="1"/>
<stop offset="0.84375" stop-color="rgb(80.403137%, 80.403137%, 80.403137%)" stop-opacity="1"/>
<stop offset="0.863281" stop-color="rgb(80.072021%, 80.072021%, 80.072021%)" stop-opacity="1"/>
<stop offset="0.878906" stop-color="rgb(79.815674%, 79.815674%, 79.815674%)" stop-opacity="1"/>
<stop offset="0.890625" stop-color="rgb(79.594421%, 79.594421%, 79.594421%)" stop-opacity="1"/>
<stop offset="0.902344" stop-color="rgb(79.373169%, 79.373169%, 79.373169%)" stop-opacity="1"/>
<stop offset="0.914062" stop-color="rgb(79.0802%, 79.0802%, 79.0802%)" stop-opacity="1"/>
<stop offset="0.933594" stop-color="rgb(78.749084%, 78.749084%, 78.749084%)" stop-opacity="1"/>
<stop offset="0.949219" stop-color="rgb(78.491211%, 78.491211%, 78.491211%)" stop-opacity="1"/>
<stop offset="0.960938" stop-color="rgb(78.196716%, 78.196716%, 78.196716%)" stop-opacity="1"/>
<stop offset="0.980469" stop-color="rgb(77.828979%, 77.828979%, 77.828979%)" stop-opacity="1"/>
<stop offset="1" stop-color="rgb(77.645874%, 77.645874%, 77.645874%)" stop-opacity="1"/>
</radialGradient>
</defs>
<path fill-rule="nonzero" fill="url(#radial-pattern-0)" d="M -14.863281 0.078125 L 0.078125 2810.863281 L 2810.863281 2795.921875 L 2795.921875 -14.863281 Z M -14.863281 0.078125 "/>
<path fill-rule="nonzero" fill="rgb(11.376953%, 11.376953%, 10.594177%)" fill-opacity="1" d="M 633.660156 1056.828125 C 634.890625 1055.589844 636.28125 1054.511719 637.828125 1053.621094 C 636.28125 1054.519531 634.890625 1055.601562 633.660156 1056.828125 "/>
<path fill-rule="nonzero" fill="rgb(11.376953%, 11.376953%, 10.594177%)" fill-opacity="1" d="M 1378.441406 1515.769531 L 1378.441406 2106.019531 L 1033.238281 1906.699219 L 667.828125 1695.839844 L 667.828125 1105.570312 L 1013.25 1304.898438 L 1378.441406 1515.769531 "/>
<path fill-rule="nonzero" fill="rgb(11.376953%, 11.376953%, 10.594177%)" fill-opacity="1" d="M 1523.738281 1285.390625 L 1523.738281 1267.101562 C 1523.25 1267.460938 1522.75 1267.808594 1522.261719 1268.148438 C 1521.769531 1268.488281 1521.28125 1268.828125 1520.789062 1269.171875 C 1520.289062 1269.519531 1519.789062 1269.859375 1519.28125 1270.191406 C 1518.769531 1270.519531 1518.261719 1270.859375 1517.738281 1271.191406 C 1517.230469 1271.53125 1516.710938 1271.859375 1516.179688 1272.191406 C 1515.660156 1272.519531 1515.128906 1272.851562 1514.601562 1273.171875 C 1513.539062 1273.828125 1512.460938 1274.46875 1511.371094 1275.101562 C 1511.339844 1275.109375 1511.308594 1275.128906 1511.28125 1275.148438 C 1480.730469 1292.628906 1440.648438 1302.269531 1398.441406 1302.269531 C 1356.21875 1302.269531 1316.148438 1292.628906 1285.589844 1275.148438 C 1285.53125 1275.109375 1285.46875 1275.078125 1285.421875 1275.039062 C 1283.960938 1274.179688 1282.519531 1273.308594 1281.121094 1272.429688 C 1280.648438 1272.128906 1280.191406 1271.828125 1279.71875 1271.539062 C 1279.261719 1271.238281 1278.800781 1270.941406 1278.351562 1270.640625 C 1277.890625 1270.328125 1277.441406 1270.03125 1276.988281 1269.730469 C 1276.539062 1269.421875 1276.089844 1269.121094 1275.648438 1268.808594 C 1274.800781 1268.230469 1273.960938 1267.628906 1273.128906 1267.03125 L 1273.128906 1284.921875 C 1273.128906 1286.308594 1273.011719 1287.5 1272.921875 1288.289062 C 1273.300781 1302.820312 1285.140625 1317.859375 1305.539062 1329.648438 C 1329.921875 1343.640625 1362.949219 1351.480469 1398.5 1351.699219 C 1433.921875 1351.691406 1466.878906 1343.871094 1491.289062 1329.679688 C 1511.621094 1317.921875 1523.449219 1302.980469 1523.949219 1288.519531 C 1523.851562 1287.730469 1523.738281 1286.648438 1523.738281 1285.390625 Z M 1523.738281 1285.390625 L 1523.738281 1267.101562 C 1523.25 1267.460938 1522.75 1267.808594 1522.261719 1268.148438 C 1521.769531 1268.488281 1521.28125 1268.828125 1520.789062 1269.171875 C 1520.289062 1269.519531 1519.789062 1269.859375 1519.28125 1270.191406 C 1518.769531 1270.519531 1518.261719 1270.859375 1517.738281 1271.191406 C 1517.230469 1271.53125 1516.710938 1271.859375 1516.179688 1272.191406 C 1515.660156 1272.519531 1515.128906 1272.851562 1514.601562 1273.171875 C 1513.539062 1273.828125 1512.460938 1274.46875 1511.371094 1275.101562 C 1511.339844 1275.109375 1511.308594 1275.128906 1511.28125 1275.148438 C 1480.730469 1292.628906 1440.648438 1302.269531 1398.441406 1302.269531 C 1356.21875 1302.269531 1316.148438 1292.628906 1285.589844 1275.148438 C 1285.53125 1275.109375 1285.46875 1275.078125 1285.421875 1275.039062 C 1283.960938 1274.179688 1282.519531 1273.308594 1281.121094 1272.429688 C 1280.648438 1272.128906 1280.191406 1271.828125 1279.71875 1271.539062 C 1279.261719 1271.238281 1278.800781 1270.941406 1278.351562 1270.640625 C 1277.890625 1270.328125 1277.441406 1270.03125 1276.988281 1269.730469 C 1276.539062 1269.421875 1276.089844 1269.121094 1275.648438 1268.808594 C 1274.800781 1268.230469 1273.960938 1267.628906 1273.128906 1267.03125 L 1273.128906 1284.921875 C 1273.128906 1286.308594 1273.011719 1287.5 1272.921875 1288.289062 C 1273.300781 1302.820312 1285.140625 1317.859375 1305.539062 1329.648438 C 1329.921875 1343.640625 1362.949219 1351.480469 1398.5 1351.699219 C 1433.921875 1351.691406 1466.878906 1343.871094 1491.289062 1329.679688 C 1511.621094 1317.921875 1523.449219 1302.980469 1523.949219 1288.519531 C 1523.851562 1287.730469 1523.738281 1286.648438 1523.738281 1285.390625 Z M 1491.171875 1156.289062 C 1467.121094 1142.390625 1433.261719 1134.429688 1398.210938 1134.429688 C 1363.308594 1134.429688 1329.53125 1142.390625 1305.539062 1156.261719 C 1284.46875 1168.339844 1272.910156 1183.28125 1272.910156 1198.351562 C 1272.910156 1199.148438 1272.949219 1199.96875 1273.03125 1200.769531 C 1273.03125 1200.839844 1273.039062 1200.898438 1273.050781 1200.960938 C 1274.300781 1214.878906 1285.851562 1228.910156 1305.550781 1240.480469 C 1329.789062 1254.328125 1363.640625 1262.269531 1398.441406 1262.269531 C 1433.769531 1262.269531 1466.761719 1254.519531 1491.359375 1240.460938 C 1510.738281 1229.230469 1522.570312 1214.828125 1523.828125 1200.960938 C 1523.828125 1200.898438 1523.839844 1200.839844 1523.839844 1200.769531 C 1523.921875 1200 1523.960938 1199.21875 1523.96875 1198.449219 C 1523.75 1183.488281 1511.808594 1168.128906 1491.171875 1156.289062 Z M 1491.171875 1156.289062 C 1467.121094 1142.390625 1433.261719 1134.429688 1398.210938 1134.429688 C 1363.308594 1134.429688 1329.53125 1142.390625 1305.539062 1156.261719 C 1284.46875 1168.339844 1272.910156 1183.28125 1272.910156 1198.351562 C 1272.910156 1199.148438 1272.949219 1199.96875 1273.03125 1200.769531 C 1273.03125 1200.839844 1273.039062 1200.898438 1273.050781 1200.960938 C 1274.300781 1214.878906 1285.851562 1228.910156 1305.550781 1240.480469 C 1329.789062 1254.328125 1363.640625 1262.269531 1398.441406 1262.269531 C 1433.769531 1262.269531 1466.761719 1254.519531 1491.359375 1240.460938 C 1510.738281 1229.230469 1522.570312 1214.828125 1523.828125 1200.960938 C 1523.828125 1200.898438 1523.839844 1200.839844 1523.839844 1200.769531 C 1523.921875 1200 1523.960938 1199.21875 1523.96875 1198.449219 C 1523.75 1183.488281 1511.808594 1168.128906 1491.171875 1156.289062 Z M 1523.738281 1285.390625 L 1523.738281 1267.101562 C 1523.25 1267.460938 1522.75 1267.808594 1522.261719 1268.148438 C 1521.769531 1268.488281 1521.28125 1268.828125 1520.789062 1269.171875 C 1520.289062 1269.519531 1519.789062 1269.859375 1519.28125 1270.191406 C 1518.769531 1270.519531 1518.261719 1270.859375 1517.738281 1271.191406 C 1517.230469 1271.53125 1516.710938 1271.859375 1516.179688 1272.191406 C 1515.660156 1272.519531 1515.128906 1272.851562 1514.601562 1273.171875 C 1513.539062 1273.828125 1512.460938 1274.46875 1511.371094 1275.101562 C 1511.339844 1275.109375 1511.308594 1275.128906 1511.28125 1275.148438 C 1480.730469 1292.628906 1440.648438 1302.269531 1398.441406 1302.269531 C 1356.21875 1302.269531 1316.148438 1292.628906 1285.589844 1275.148438 C 1285.53125 1275.109375 1285.46875 1275.078125 1285.421875 1275.039062 C 1283.960938 1274.179688 1282.519531 1273.308594 1281.121094 1272.429688 C 1280.648438 1272.128906 1280.191406 1271.828125 1279.71875 1271.539062 C 1279.261719 1271.238281 1278.800781 1270.941406 1278.351562 1270.640625 C 1277.890625 1270.328125 1277.441406 1270.03125 1276.988281 1269.730469 C 1276.539062 1269.421875 1276.089844 1269.121094 1275.648438 1268.808594 C 1274.800781 1268.230469 1273.960938 1267.628906 1273.128906 1267.03125 L 1273.128906 1284.921875 C 1273.128906 1286.308594 1273.011719 1287.5 1272.921875 1288.289062 C 1273.300781 1302.820312 1285.140625 1317.859375 1305.539062 1329.648438 C 1329.921875 1343.640625 1362.949219 1351.480469 1398.5 1351.699219 C 1433.921875 1351.691406 1466.878906 1343.871094 1491.289062 1329.679688 C 1511.621094 1317.921875 1523.449219 1302.980469 1523.949219 1288.519531 C 1523.851562 1287.730469 1523.738281 1286.648438 1523.738281 1285.390625 Z M 1523.738281 1285.390625 L 1523.738281 1267.101562 C 1523.25 1267.460938 1522.75 1267.808594 1522.261719 1268.148438 C 1521.769531 1268.488281 1521.28125 1268.828125 1520.789062 1269.171875 C 1520.289062 1269.519531 1519.789062 1269.859375 1519.28125 1270.191406 C 1518.769531 1270.519531 1518.261719 1270.859375 1517.738281 1271.191406 C 1517.230469 1271.53125 1516.710938 1271.859375 1516.179688 1272.191406 C 1515.660156 1272.519531 1515.128906 1272.851562 1514.601562 1273.171875 C 1513.539062 1273.828125 1512.460938 1274.46875 1511.371094 1275.101562 C 1511.339844 1275.109375 1511.308594 1275.128906 1511.28125 1275.148438 C 1480.730469 1292.628906 1440.648438 1302.269531 1398.441406 1302.269531 C 1356.21875 1302.269531 1316.148438 1292.628906 1285.589844 1275.148438 C 1285.53125 1275.109375 1285.46875 1275.078125 1285.421875 1275.039062 C 1283.960938 1274.179688 1282.519531 1273.308594 1281.121094 1272.429688 C 1280.648438 1272.128906 1280.191406 1271.828125 1279.71875 1271.539062 C 1279.261719 1271.238281 1278.800781 1270.941406 1278.351562 1270.640625 C 1277.890625 1270.328125 1277.441406 1270.03125 1276.988281 1269.730469 C 1276.539062 1269.421875 1276.089844 1269.121094 1275.648438 1268.808594 C 1274.800781 1268.230469 1273.960938 1267.628906 1273.128906 1267.03125 L 1273.128906 1284.921875 C 1273.128906 1286.308594 1273.011719 1287.5 1272.921875 1288.289062 C 1273.300781 1302.820312 1285.140625 1317.859375 1305.539062 1329.648438 C 1329.921875 1343.640625 1362.949219 1351.480469 1398.5 1351.699219 C 1433.921875 1351.691406 1466.878906 1343.871094 1491.289062 1329.679688 C 1511.621094 1317.921875 1523.449219 1302.980469 1523.949219 1288.519531 C 1523.851562 1287.730469 1523.738281 1286.648438 1523.738281 1285.390625 Z M 1491.171875 1156.289062 C 1467.121094 1142.390625 1433.261719 1134.429688 1398.210938 1134.429688 C 1363.308594 1134.429688 1329.53125 1142.390625 1305.539062 1156.261719 C 1284.46875 1168.339844 1272.910156 1183.28125 1272.910156 1198.351562 C 1272.910156 1199.148438 1272.949219 1199.96875 1273.03125 1200.769531 C 1273.03125 1200.839844 1273.039062 1200.898438 1273.050781 1200.960938 C 1274.300781 1214.878906 1285.851562 1228.910156 1305.550781 1240.480469 C 1329.789062 1254.328125 1363.640625 1262.269531 1398.441406 1262.269531 C 1433.769531 1262.269531 1466.761719 1254.519531 1491.359375 1240.460938 C 1510.738281 1229.230469 1522.570312 1214.828125 1523.828125 1200.960938 C 1523.828125 1200.898438 1523.839844 1200.839844 1523.839844 1200.769531 C 1523.921875 1200 1523.960938 1199.21875 1523.96875 1198.449219 C 1523.75 1183.488281 1511.808594 1168.128906 1491.171875 1156.289062 Z M 1491.171875 1156.289062 C 1467.121094 1142.390625 1433.261719 1134.429688 1398.210938 1134.429688 C 1363.308594 1134.429688 1329.53125 1142.390625 1305.539062 1156.261719 C 1284.46875 1168.339844 1272.910156 1183.28125 1272.910156 1198.351562 C 1272.910156 1199.148438 1272.949219 1199.96875 1273.03125 1200.769531 C 1273.03125 1200.839844 1273.039062 1200.898438 1273.050781 1200.960938 C 1274.300781 1214.878906 1285.851562 1228.910156 1305.550781 1240.480469 C 1329.789062 1254.328125 1363.640625 1262.269531 1398.441406 1262.269531 C 1433.769531 1262.269531 1466.761719 1254.519531 1491.359375 1240.460938 C 1510.738281 1229.230469 1522.570312 1214.828125 1523.828125 1200.960938 C 1523.828125 1200.898438 1523.839844 1200.839844 1523.839844 1200.769531 C 1523.921875 1200 1523.960938 1199.21875 1523.96875 1198.449219 C 1523.75 1183.488281 1511.808594 1168.128906 1491.171875 1156.289062 Z M 1523.738281 1285.390625 L 1523.738281 1267.101562 C 1523.25 1267.460938 1522.75 1267.808594 1522.261719 1268.148438 C 1521.769531 1268.488281 1521.28125 1268.828125 1520.789062 1269.171875 C 1520.289062 1269.519531 1519.789062 1269.859375 1519.28125 1270.191406 C 1518.769531 1270.519531 1518.261719 1270.859375 1517.738281 1271.191406 C 1517.230469 1271.53125 1516.710938 1271.859375 1516.179688 1272.191406 C 1515.660156 1272.519531 1515.128906 1272.851562 1514.601562 1273.171875 C 1513.539062 1273.828125 1512.460938 1274.46875 1511.371094 1275.101562 C 1511.339844 1275.109375 1511.308594 1275.128906 1511.28125 1275.148438 C 1480.730469 1292.628906 1440.648438 1302.269531 1398.441406 1302.269531 C 1356.21875 1302.269531 1316.148438 1292.628906 1285.589844 1275.148438 C 1285.53125 1275.109375 1285.46875 1275.078125 1285.421875 1275.039062 C 1283.960938 1274.179688 1282.519531 1273.308594 1281.121094 1272.429688 C 1280.648438 1272.128906 1280.191406 1271.828125 1279.71875 1271.539062 C 1279.261719 1271.238281 1278.800781 1270.941406 1278.351562 1270.640625 C 1277.890625 1270.328125 1277.441406 1270.03125 1276.988281 1269.730469 C 1276.539062 1269.421875 1276.089844 1269.121094 1275.648438 1268.808594 C 1274.800781 1268.230469 1273.960938 1267.628906 1273.128906 1267.03125 L 1273.128906 1284.921875 C 1273.128906 1286.308594 1273.011719 1287.5 1272.921875 1288.289062 C 1273.300781 1302.820312 1285.140625 1317.859375 1305.539062 1329.648438 C 1329.921875 1343.640625 1362.949219 1351.480469 1398.5 1351.699219 C 1433.921875 1351.691406 1466.878906 1343.871094 1491.289062 1329.679688 C 1511.621094 1317.921875 1523.449219 1302.980469 1523.949219 1288.519531 C 1523.851562 1287.730469 1523.738281 1286.648438 1523.738281 1285.390625 Z M 1148.5 980.378906 L 1148.46875 979.988281 C 1147.648438 965.730469 1135.808594 951.03125 1115.96875 939.648438 C 1091.53125 925.628906 1058.5 917.789062 1022.960938 917.570312 C 988.320312 917.578125 954.558594 925.621094 930.339844 939.621094 C 910.148438 951.199219 898.609375 965.519531 897.789062 979.980469 C 897.78125 980.109375 897.769531 980.238281 897.761719 980.378906 C 897.730469 980.808594 897.710938 981.300781 897.710938 981.75 C 897.710938 996.621094 909.289062 1011.550781 930.328125 1023.789062 C 954.898438 1037.871094 987.890625 1045.628906 1023.238281 1045.628906 C 1058.101562 1045.628906 1091.980469 1037.660156 1116.199219 1023.769531 C 1136.730469 1011.890625 1148.550781 996.558594 1148.550781 981.75 C 1148.550781 981.289062 1148.53125 980.800781 1148.5 980.378906 Z M 1523.738281 1285.390625 L 1523.738281 1267.101562 C 1523.25 1267.460938 1522.75 1267.808594 1522.261719 1268.148438 C 1521.769531 1268.488281 1521.28125 1268.828125 1520.789062 1269.171875 C 1520.289062 1269.519531 1519.789062 1269.859375 1519.28125 1270.191406 C 1518.769531 1270.519531 1518.261719 1270.859375 1517.738281 1271.191406 C 1517.230469 1271.53125 1516.710938 1271.859375 1516.179688 1272.191406 C 1515.660156 1272.519531 1515.128906 1272.851562 1514.601562 1273.171875 C 1513.539062 1273.828125 1512.460938 1274.46875 1511.371094 1275.101562 C 1511.339844 1275.109375 1511.308594 1275.128906 1511.28125 1275.148438 C 1480.730469 1292.628906 1440.648438 1302.269531 1398.441406 1302.269531 C 1356.21875 1302.269531 1316.148438 1292.628906 1285.589844 1275.148438 C 1285.53125 1275.109375 1285.46875 1275.078125 1285.421875 1275.039062 C 1283.960938 1274.179688 1282.519531 1273.308594 1281.121094 1272.429688 C 1280.648438 1272.128906 1280.191406 1271.828125 1279.71875 1271.539062 C 1279.261719 1271.238281 1278.800781 1270.941406 1278.351562 1270.640625 C 1277.890625 1270.328125 1277.441406 1270.03125 1276.988281 1269.730469 C 1276.539062 1269.421875 1276.089844 1269.121094 1275.648438 1268.808594 C 1274.800781 1268.230469 1273.960938 1267.628906 1273.128906 1267.03125 L 1273.128906 1284.921875 C 1273.128906 1286.308594 1273.011719 1287.5 1272.921875 1288.289062 C 1273.300781 1302.820312 1285.140625 1317.859375 1305.539062 1329.648438 C 1329.921875 1343.640625 1362.949219 1351.480469 1398.5 1351.699219 C 1433.921875 1351.691406 1466.878906 1343.871094 1491.289062 1329.679688 C 1511.621094 1317.921875 1523.449219 1302.980469 1523.949219 1288.519531 C 1523.851562 1287.730469 1523.738281 1286.648438 1523.738281 1285.390625 Z M 1491.171875 1156.289062 C 1467.121094 1142.390625 1433.261719 1134.429688 1398.210938 1134.429688 C 1363.308594 1134.429688 1329.53125 1142.390625 1305.539062 1156.261719 C 1284.46875 1168.339844 1272.910156 1183.28125 1272.910156 1198.351562 C 1272.910156 1199.148438 1272.949219 1199.96875 1273.03125 1200.769531 C 1273.03125 1200.839844 1273.039062 1200.898438 1273.050781 1200.960938 C 1274.300781 1214.878906 1285.851562 1228.910156 1305.550781 1240.480469 C 1329.789062 1254.328125 1363.640625 1262.269531 1398.441406 1262.269531 C 1433.769531 1262.269531 1466.761719 1254.519531 1491.359375 1240.460938 C 1510.738281 1229.230469 1522.570312 1214.828125 1523.828125 1200.960938 C 1523.828125 1200.898438 1523.839844 1200.839844 1523.839844 1200.769531 C 1523.921875 1200 1523.960938 1199.21875 1523.96875 1198.449219 C 1523.75 1183.488281 1511.808594 1168.128906 1491.171875 1156.289062 Z M 1491.171875 1156.289062 C 1467.121094 1142.390625 1433.261719 1134.429688 1398.210938 1134.429688 C 1363.308594 1134.429688 1329.53125 1142.390625 1305.539062 1156.261719 C 1284.46875 1168.339844 1272.910156 1183.28125 1272.910156 1198.351562 C 1272.910156 1199.148438 1272.949219 1199.96875 1273.03125 1200.769531 C 1273.03125 1200.839844 1273.039062 1200.898438 1273.050781 1200.960938 C 1274.300781 1214.878906 1285.851562 1228.910156 1305.550781 1240.480469 C 1329.789062 1254.328125 1363.640625 1262.269531 1398.441406 1262.269531 C 1433.769531 1262.269531 1466.761719 1254.519531 1491.359375 1240.460938 C 1510.738281 1229.230469 1522.570312 1214.828125 1523.828125 1200.960938 C 1523.828125 1200.898438 1523.839844 1200.839844 1523.839844 1200.769531 C 1523.921875 1200 1523.960938 1199.21875 1523.96875 1198.449219 C 1523.75 1183.488281 1511.808594 1168.128906 1491.171875 1156.289062 Z M 1523.738281 1285.390625 L 1523.738281 1267.101562 C 1523.25 1267.460938 1522.75 1267.808594 1522.261719 1268.148438 C 1521.769531 1268.488281 1521.28125 1268.828125 1520.789062 1269.171875 C 1520.289062 1269.519531 1519.789062 1269.859375 1519.28125 1270.191406 C 1518.769531 1270.519531 1518.261719 1270.859375 1517.738281 1271.191406 C 1517.230469 1271.53125 1516.710938 1271.859375 1516.179688 1272.191406 C 1515.660156 1272.519531 1515.128906 1272.851562 1514.601562 1273.171875 C 1513.539062 1273.828125 1512.460938 1274.46875 1511.371094 1275.101562 C 1511.339844 1275.109375 1511.308594 1275.128906 1511.28125 1275.148438 C 1480.730469 1292.628906 1440.648438 1302.269531 1398.441406 1302.269531 C 1356.21875 1302.269531 1316.148438 1292.628906 1285.589844 1275.148438 C 1285.53125 1275.109375 1285.46875 1275.078125 1285.421875 1275.039062 C 1283.960938 1274.179688 1282.519531 1273.308594 1281.121094 1272.429688 C 1280.648438 1272.128906 1280.191406 1271.828125 1279.71875 1271.539062 C 1279.261719 1271.238281 1278.800781 1270.941406 1278.351562 1270.640625 C 1277.890625 1270.328125 1277.441406 1270.03125 1276.988281 1269.730469 C 1276.539062 1269.421875 1276.089844 1269.121094 1275.648438 1268.808594 C 1274.800781 1268.230469 1273.960938 1267.628906 1273.128906 1267.03125 L 1273.128906 1284.921875 C 1273.128906 1286.308594 1273.011719 1287.5 1272.921875 1288.289062 C 1273.300781 1302.820312 1285.140625 1317.859375 1305.539062 1329.648438 C 1329.921875 1343.640625 1362.949219 1351.480469 1398.5 1351.699219 C 1433.921875 1351.691406 1466.878906 1343.871094 1491.289062 1329.679688 C 1511.621094 1317.921875 1523.449219 1302.980469 1523.949219 1288.519531 C 1523.851562 1287.730469 1523.738281 1286.648438 1523.738281 1285.390625 Z M 1148.5 980.378906 L 1148.46875 979.988281 C 1147.648438 965.730469 1135.808594 951.03125 1115.96875 939.648438 C 1091.53125 925.628906 1058.5 917.789062 1022.960938 917.570312 C 988.320312 917.578125 954.558594 925.621094 930.339844 939.621094 C 910.148438 951.199219 898.609375 965.519531 897.789062 979.980469 C 897.78125 980.109375 897.769531 980.238281 897.761719 980.378906 C 897.730469 980.808594 897.710938 981.300781 897.710938 981.75 C 897.710938 996.621094 909.289062 1011.550781 930.328125 1023.789062 C 954.898438 1037.871094 987.890625 1045.628906 1023.238281 1045.628906 C 1058.101562 1045.628906 1091.980469 1037.660156 1116.199219 1023.769531 C 1136.730469 1011.890625 1148.550781 996.558594 1148.550781 981.75 C 1148.550781 981.289062 1148.53125 980.800781 1148.5 980.378906 Z M 1147.96875 1050.808594 C 1144.261719 1053.480469 1140.320312 1056.019531 1136.160156 1058.429688 C 1105.558594 1075.980469 1065.480469 1085.628906 1023.238281 1085.628906 C 981 1085.628906 940.910156 1075.980469 910.378906 1058.460938 C 910.339844 1058.441406 910.308594 1058.421875 910.28125 1058.398438 C 907.628906 1056.859375 905.078125 1055.28125 902.621094 1053.648438 C 902.230469 1053.390625 901.851562 1053.140625 901.46875 1052.878906 C 900.871094 1052.480469 900.289062 1052.078125 899.710938 1051.671875 C 899.230469 1051.339844 898.761719 1051.011719 898.289062 1050.671875 C 898.089844 1050.53125 897.898438 1050.390625 897.710938 1050.261719 L 897.710938 1070.929688 C 897.710938 1085.78125 909.578125 1101.109375 930.28125 1112.980469 C 954.859375 1127.078125 987.871094 1134.839844 1023.238281 1134.839844 L 1023.359375 1134.839844 C 1057.769531 1135.050781 1091.621094 1127.078125 1116.199219 1112.980469 C 1137.039062 1100.929688 1148.550781 1085.988281 1148.550781 1070.929688 L 1148.550781 1050.398438 C 1148.359375 1050.539062 1148.171875 1050.679688 1147.96875 1050.808594 Z M 1523.738281 1285.390625 L 1523.738281 1267.101562 C 1523.25 1267.460938 1522.75 1267.808594 1522.261719 1268.148438 C 1521.769531 1268.488281 1521.28125 1268.828125 1520.789062 1269.171875 C 1520.289062 1269.519531 1519.789062 1269.859375 1519.28125 1270.191406 C 1518.769531 1270.519531 1518.261719 1270.859375 1517.738281 1271.191406 C 1517.230469 1271.53125 1516.710938 1271.859375 1516.179688 1272.191406 C 1515.660156 1272.519531 1515.128906 1272.851562 1514.601562 1273.171875 C 1513.539062 1273.828125 1512.460938 1274.46875 1511.371094 1275.101562 C 1511.339844 1275.109375 1511.308594 1275.128906 1511.28125 1275.148438 C 1480.730469 1292.628906 1440.648438 1302.269531 1398.441406 1302.269531 C 1356.21875 1302.269531 1316.148438 1292.628906 1285.589844 1275.148438 C 1285.53125 1275.109375 1285.46875 1275.078125 1285.421875 1275.039062 C 1283.960938 1274.179688 1282.519531 1273.308594 1281.121094 1272.429688 C 1280.648438 1272.128906 1280.191406 1271.828125 1279.71875 1271.539062 C 1279.261719 1271.238281 1278.800781 1270.941406 1278.351562 1270.640625 C 1277.890625 1270.328125 1277.441406 1270.03125 1276.988281 1269.730469 C 1276.539062 1269.421875 1276.089844 1269.121094 1275.648438 1268.808594 C 1274.800781 1268.230469 1273.960938 1267.628906 1273.128906 1267.03125 L 1273.128906 1284.921875 C 1273.128906 1286.308594 1273.011719 1287.5 1272.921875 1288.289062 C 1273.300781 1302.820312 1285.140625 1317.859375 1305.539062 1329.648438 C 1329.921875 1343.640625 1362.949219 1351.480469 1398.5 1351.699219 C 1433.921875 1351.691406 1466.878906 1343.871094 1491.289062 1329.679688 C 1511.621094 1317.921875 1523.449219 1302.980469 1523.949219 1288.519531 C 1523.851562 1287.730469 1523.738281 1286.648438 1523.738281 1285.390625 Z M 1491.171875 1156.289062 C 1467.121094 1142.390625 1433.261719 1134.429688 1398.210938 1134.429688 C 1363.308594 1134.429688 1329.53125 1142.390625 1305.539062 1156.261719 C 1284.46875 1168.339844 1272.910156 1183.28125 1272.910156 1198.351562 C 1272.910156 1199.148438 1272.949219 1199.96875 1273.03125 1200.769531 C 1273.03125 1200.839844 1273.039062 1200.898438 1273.050781 1200.960938 C 1274.300781 1214.878906 1285.851562 1228.910156 1305.550781 1240.480469 C 1329.789062 1254.328125 1363.640625 1262.269531 1398.441406 1262.269531 C 1433.769531 1262.269531 1466.761719 1254.519531 1491.359375 1240.460938 C 1510.738281 1229.230469 1522.570312 1214.828125 1523.828125 1200.960938 C 1523.828125 1200.898438 1523.839844 1200.839844 1523.839844 1200.769531 C 1523.921875 1200 1523.960938 1199.21875 1523.96875 1198.449219 C 1523.75 1183.488281 1511.808594 1168.128906 1491.171875 1156.289062 Z M 1491.171875 1156.289062 C 1467.121094 1142.390625 1433.261719 1134.429688 1398.210938 1134.429688 C 1363.308594 1134.429688 1329.53125 1142.390625 1305.539062 1156.261719 C 1284.46875 1168.339844 1272.910156 1183.28125 1272.910156 1198.351562 C 1272.910156 1199.148438 1272.949219 1199.96875 1273.03125 1200.769531 C 1273.03125 1200.839844 1273.039062 1200.898438 1273.050781 1200.960938 C 1274.300781 1214.878906 1285.851562 1228.910156 1305.550781 1240.480469 C 1329.789062 1254.328125 1363.640625 1262.269531 1398.441406 1262.269531 C 1433.769531 1262.269531 1466.761719 1254.519531 1491.359375 1240.460938 C 1510.738281 1229.230469 1522.570312 1214.828125 1523.828125 1200.960938 C 1523.828125 1200.898438 1523.839844 1200.839844 1523.839844 1200.769531 C 1523.921875 1200 1523.960938 1199.21875 1523.96875 1198.449219 C 1523.75 1183.488281 1511.808594 1168.128906 1491.171875 1156.289062 Z M 1523.738281 1285.390625 L 1523.738281 1267.101562 C 1523.25 1267.460938 1522.75 1267.808594 1522.261719 1268.148438 C 1521.769531 1268.488281 1521.28125 1268.828125 1520.789062 1269.171875 C 1520.289062 1269.519531 1519.789062 1269.859375 1519.28125 1270.191406 C 1518.769531 1270.519531 1518.261719 1270.859375 1517.738281 1271.191406 C 1517.230469 1271.53125 1516.710938 1271.859375 1516.179688 1272.191406 C 1515.660156 1272.519531 1515.128906 1272.851562 1514.601562 1273.171875 C 1513.539062 1273.828125 1512.460938 1274.46875 1511.371094 1275.101562 C 1511.339844 1275.109375 1511.308594 1275.128906 1511.28125 1275.148438 C 1480.730469 1292.628906 1440.648438 1302.269531 1398.441406 1302.269531 C 1356.21875 1302.269531 1316.148438 1292.628906 1285.589844 1275.148438 C 1285.53125 1275.109375 1285.46875 1275.078125 1285.421875 1275.039062 C 1283.960938 1274.179688 1282.519531 1273.308594 1281.121094 1272.429688 C 1280.648438 1272.128906 1280.191406 1271.828125 1279.71875 1271.539062 C 1279.261719 1271.238281 1278.800781 1270.941406 1278.351562 1270.640625 C 1277.890625 1270.328125 1277.441406 1270.03125 1276.988281 1269.730469 C 1276.539062 1269.421875 1276.089844 1269.121094 1275.648438 1268.808594 C 1274.800781 1268.230469 1273.960938 1267.628906 1273.128906 1267.03125 L 1273.128906 1284.921875 C 1273.128906 1286.308594 1273.011719 1287.5 1272.921875 1288.289062 C 1273.300781 1302.820312 1285.140625 1317.859375 1305.539062 1329.648438 C 1329.921875 1343.640625 1362.949219 1351.480469 1398.5 1351.699219 C 1433.921875 1351.691406 1466.878906 1343.871094 1491.289062 1329.679688 C 1511.621094 1317.921875 1523.449219 1302.980469 1523.949219 1288.519531 C 1523.851562 1287.730469 1523.738281 1286.648438 1523.738281 1285.390625 Z M 1147.96875 1050.808594 C 1144.261719 1053.480469 1140.320312 1056.019531 1136.160156 1058.429688 C 1105.558594 1075.980469 1065.480469 1085.628906 1023.238281 1085.628906 C 981 1085.628906 940.910156 1075.980469 910.378906 1058.460938 C 910.339844 1058.441406 910.308594 1058.421875 910.28125 1058.398438 C 907.628906 1056.859375 905.078125 1055.28125 902.621094 1053.648438 C 902.230469 1053.390625 901.851562 1053.140625 901.46875 1052.878906 C 900.871094 1052.480469 900.289062 1052.078125 899.710938 1051.671875 C 899.230469 1051.339844 898.761719 1051.011719 898.289062 1050.671875 C 898.089844 1050.53125 897.898438 1050.390625 897.710938 1050.261719 L 897.710938 1070.929688 C 897.710938 1085.78125 909.578125 1101.109375 930.28125 1112.980469 C 954.859375 1127.078125 987.871094 1134.839844 1023.238281 1134.839844 L 1023.359375 1134.839844 C 1057.769531 1135.050781 1091.621094 1127.078125 1116.199219 1112.980469 C 1137.039062 1100.929688 1148.550781 1085.988281 1148.550781 1070.929688 L 1148.550781 1050.398438 C 1148.359375 1050.539062 1148.171875 1050.679688 1147.96875 1050.808594 Z M 1147.96875 1050.808594 C 1144.261719 1053.480469 1140.320312 1056.019531 1136.160156 1058.429688 C 1105.558594 1075.980469 1065.480469 1085.628906 1023.238281 1085.628906 C 981 1085.628906 940.910156 1075.980469 910.378906 1058.460938 C 910.339844 1058.441406 910.308594 1058.421875 910.28125 1058.398438 C 907.628906 1056.859375 905.078125 1055.28125 902.621094 1053.648438 C 902.230469 1053.390625 901.851562 1053.140625 901.46875 1052.878906 C 900.871094 1052.480469 900.289062 1052.078125 899.710938 1051.671875 C 899.230469 1051.339844 898.761719 1051.011719 898.289062 1050.671875 C 898.089844 1050.53125 897.898438 1050.390625 897.710938 1050.261719 L 897.710938 1070.929688 C 897.710938 1085.78125 909.578125 1101.109375 930.28125 1112.980469 C 954.859375 1127.078125 987.871094 1134.839844 1023.238281 1134.839844 L 1023.359375 1134.839844 C 1057.769531 1135.050781 1091.621094 1127.078125 1116.199219 1112.980469 C 1137.039062 1100.929688 1148.550781 1085.988281 1148.550781 1070.929688 L 1148.550781 1050.398438 C 1148.359375 1050.539062 1148.171875 1050.679688 1147.96875 1050.808594 Z M 1523.738281 1285.390625 L 1523.738281 1267.101562 C 1523.25 1267.460938 1522.75 1267.808594 1522.261719 1268.148438 C 1521.769531 1268.488281 1521.28125 1268.828125 1520.789062 1269.171875 C 1520.289062 1269.519531 1519.789062 1269.859375 1519.28125 1270.191406 C 1518.769531 1270.519531 1518.261719 1270.859375 1517.738281 1271.191406 C 1517.230469 1271.53125 1516.710938 1271.859375 1516.179688 1272.191406 C 1515.660156 1272.519531 1515.128906 1272.851562 1514.601562 1273.171875 C 1513.539062 1273.828125 1512.460938 1274.46875 1511.371094 1275.101562 C 1511.339844 1275.109375 1511.308594 1275.128906 1511.28125 1275.148438 C 1480.730469 1292.628906 1440.648438 1302.269531 1398.441406 1302.269531 C 1356.21875 1302.269531 1316.148438 1292.628906 1285.589844 1275.148438 C 1285.53125 1275.109375 1285.46875 1275.078125 1285.421875 1275.039062 C 1283.960938 1274.179688 1282.519531 1273.308594 1281.121094 1272.429688 C 1280.648438 1272.128906 1280.191406 1271.828125 1279.71875 1271.539062 C 1279.261719 1271.238281 1278.800781 1270.941406 1278.351562 1270.640625 C 1277.890625 1270.328125 1277.441406 1270.03125 1276.988281 1269.730469 C 1276.539062 1269.421875 1276.089844 1269.121094 1275.648438 1268.808594 C 1274.800781 1268.230469 1273.960938 1267.628906 1273.128906 1267.03125 L 1273.128906 1284.921875 C 1273.128906 1286.308594 1273.011719 1287.5 1272.921875 1288.289062 C 1273.300781 1302.820312 1285.140625 1317.859375 1305.539062 1329.648438 C 1329.921875 1343.640625 1362.949219 1351.480469 1398.5 1351.699219 C 1433.921875 1351.691406 1466.878906 1343.871094 1491.289062 1329.679688 C 1511.621094 1317.921875 1523.449219 1302.980469 1523.949219 1288.519531 C 1523.851562 1287.730469 1523.738281 1286.648438 1523.738281 1285.390625 Z M 1491.171875 1156.289062 C 1467.121094 1142.390625 1433.261719 1134.429688 1398.210938 1134.429688 C 1363.308594 1134.429688 1329.53125 1142.390625 1305.539062 1156.261719 C 1284.46875 1168.339844 1272.910156 1183.28125 1272.910156 1198.351562 C 1272.910156 1199.148438 1272.949219 1199.96875 1273.03125 1200.769531 C 1273.03125 1200.839844 1273.039062 1200.898438 1273.050781 1200.960938 C 1274.300781 1214.878906 1285.851562 1228.910156 1305.550781 1240.480469 C 1329.789062 1254.328125 1363.640625 1262.269531 1398.441406 1262.269531 C 1433.769531 1262.269531 1466.761719 1254.519531 1491.359375 1240.460938 C 1510.738281 1229.230469 1522.570312 1214.828125 1523.828125 1200.960938 C 1523.828125 1200.898438 1523.839844 1200.839844 1523.839844 1200.769531 C 1523.921875 1200 1523.960938 1199.21875 1523.96875 1198.449219 C 1523.75 1183.488281 1511.808594 1168.128906 1491.171875 1156.289062 Z M 1491.171875 1156.289062 C 1467.121094 1142.390625 1433.261719 1134.429688 1398.210938 1134.429688 C 1363.308594 1134.429688 1329.53125 1142.390625 1305.539062 1156.261719 C 1284.46875 1168.339844 1272.910156 1183.28125 1272.910156 1198.351562 C 1272.910156 1199.148438 1272.949219 1199.96875 1273.03125 1200.769531 C 1273.03125 1200.839844 1273.039062 1200.898438 1273.050781 1200.960938 C 1274.300781 1214.878906 1285.851562 1228.910156 1305.550781 1240.480469 C 1329.789062 1254.328125 1363.640625 1262.269531 1398.441406 1262.269531 C 1433.769531 1262.269531 1466.761719 1254.519531 1491.359375 1240.460938 C 1510.738281 1229.230469 1522.570312 1214.828125 1523.828125 1200.960938 C 1523.828125 1200.898438 1523.839844 1200.839844 1523.839844 1200.769531 C 1523.921875 1200 1523.960938 1199.21875 1523.96875 1198.449219 C 1523.75 1183.488281 1511.808594 1168.128906 1491.171875 1156.289062 Z M 1523.738281 1285.390625 L 1523.738281 1267.101562 C 1523.25 1267.460938 1522.75 1267.808594 1522.261719 1268.148438 C 1521.769531 1268.488281 1521.28125 1268.828125 1520.789062 1269.171875 C 1520.289062 1269.519531 1519.789062 1269.859375 1519.28125 1270.191406 C 1518.769531 1270.519531 1518.261719 1270.859375 1517.738281 1271.191406 C 1517.230469 1271.53125 1516.710938 1271.859375 1516.179688 1272.191406 C 1515.660156 1272.519531 1515.128906 1272.851562 1514.601562 1273.171875 C 1513.539062 1273.828125 1512.460938 1274.46875 1511.371094 1275.101562 C 1511.339844 1275.109375 1511.308594 1275.128906 1511.28125 1275.148438 C 1480.730469 1292.628906 1440.648438 1302.269531 1398.441406 1302.269531 C 1356.21875 1302.269531 1316.148438 1292.628906 1285.589844 1275.148438 C 1285.53125 1275.109375 1285.46875 1275.078125 1285.421875 1275.039062 C 1283.960938 1274.179688 1282.519531 1273.308594 1281.121094 1272.429688 C 1280.648438 1272.128906 1280.191406 1271.828125 1279.71875 1271.539062 C 1279.261719 1271.238281 1278.800781 1270.941406 1278.351562 1270.640625 C 1277.890625 1270.328125 1277.441406 1270.03125 1276.988281 1269.730469 C 1276.539062 1269.421875 1276.089844 1269.121094 1275.648438 1268.808594 C 1274.800781 1268.230469 1273.960938 1267.628906 1273.128906 1267.03125 L 1273.128906 1284.921875 C 1273.128906 1286.308594 1273.011719 1287.5 1272.921875 1288.289062 C 1273.300781 1302.820312 1285.140625 1317.859375 1305.539062 1329.648438 C 1329.921875 1343.640625 1362.949219 1351.480469 1398.5 1351.699219 C 1433.921875 1351.691406 1466.878906 1343.871094 1491.289062 1329.679688 C 1511.621094 1317.921875 1523.449219 1302.980469 1523.949219 1288.519531 C 1523.851562 1287.730469 1523.738281 1286.648438 1523.738281 1285.390625 Z M 1523.738281 1285.390625 L 1523.738281 1267.101562 C 1523.25 1267.460938 1522.75 1267.808594 1522.261719 1268.148438 C 1521.769531 1268.488281 1521.28125 1268.828125 1520.789062 1269.171875 C 1520.289062 1269.519531 1519.789062 1269.859375 1519.28125 1270.191406 C 1518.769531 1270.519531 1518.261719 1270.859375 1517.738281 1271.191406 C 1517.230469 1271.53125 1516.710938 1271.859375 1516.179688 1272.191406 C 1515.660156 1272.519531 1515.128906 1272.851562 1514.601562 1273.171875 C 1513.539062 1273.828125 1512.460938 1274.46875 1511.371094 1275.101562 C 1511.339844 1275.109375 1511.308594 1275.128906 1511.28125 1275.148438 C 1480.730469 1292.628906 1440.648438 1302.269531 1398.441406 1302.269531 C 1356.21875 1302.269531 1316.148438 1292.628906 1285.589844 1275.148438 C 1285.53125 1275.109375 1285.46875 1275.078125 1285.421875 1275.039062 C 1283.960938 1274.179688 1282.519531 1273.308594 1281.121094 1272.429688 C 1280.648438 1272.128906 1280.191406 1271.828125 1279.71875 1271.539062 C 1279.261719 1271.238281 1278.800781 1270.941406 1278.351562 1270.640625 C 1277.890625 1270.328125 1277.441406 1270.03125 1276.988281 1269.730469 C 1276.539062 1269.421875 1276.089844 1269.121094 1275.648438 1268.808594 C 1274.800781 1268.230469 1273.960938 1267.628906 1273.128906 1267.03125 L 1273.128906 1284.921875 C 1273.128906 1286.308594 1273.011719 1287.5 1272.921875 1288.289062 C 1273.300781 1302.820312 1285.140625 1317.859375 1305.539062 1329.648438 C 1329.921875 1343.640625 1362.949219 1351.480469 1398.5 1351.699219 C 1433.921875 1351.691406 1466.878906 1343.871094 1491.289062 1329.679688 C 1511.621094 1317.921875 1523.449219 1302.980469 1523.949219 1288.519531 C 1523.851562 1287.730469 1523.738281 1286.648438 1523.738281 1285.390625 Z M 1491.171875 1156.289062 C 1467.121094 1142.390625 1433.261719 1134.429688 1398.210938 1134.429688 C 1363.308594 1134.429688 1329.53125 1142.390625 1305.539062 1156.261719 C 1284.46875 1168.339844 1272.910156 1183.28125 1272.910156 1198.351562 C 1272.910156 1199.148438 1272.949219 1199.96875 1273.03125 1200.769531 C 1273.03125 1200.839844 1273.039062 1200.898438 1273.050781 1200.960938 C 1274.300781 1214.878906 1285.851562 1228.910156 1305.550781 1240.480469 C 1329.789062 1254.328125 1363.640625 1262.269531 1398.441406 1262.269531 C 1433.769531 1262.269531 1466.761719 1254.519531 1491.359375 1240.460938 C 1510.738281 1229.230469 1522.570312 1214.828125 1523.828125 1200.960938 C 1523.828125 1200.898438 1523.839844 1200.839844 1523.839844 1200.769531 C 1523.921875 1200 1523.960938 1199.21875 1523.96875 1198.449219 C 1523.75 1183.488281 1511.808594 1168.128906 1491.171875 1156.289062 Z M 1491.171875 1156.289062 C 1467.121094 1142.390625 1433.261719 1134.429688 1398.210938 1134.429688 C 1363.308594 1134.429688 1329.53125 1142.390625 1305.539062 1156.261719 C 1284.46875 1168.339844 1272.910156 1183.28125 1272.910156 1198.351562 C 1272.910156 1199.148438 1272.949219 1199.96875 1273.03125 1200.769531 C 1273.03125 1200.839844 1273.039062 1200.898438 1273.050781 1200.960938 C 1274.300781 1214.878906 1285.851562 1228.910156 1305.550781 1240.480469 C 1329.789062 1254.328125 1363.640625 1262.269531 1398.441406 1262.269531 C 1433.769531 1262.269531 1466.761719 1254.519531 1491.359375 1240.460938 C 1510.738281 1229.230469 1522.570312 1214.828125 1523.828125 1200.960938 C 1523.828125 1200.898438 1523.839844 1200.839844 1523.839844 1200.769531 C 1523.921875 1200 1523.960938 1199.21875 1523.96875 1198.449219 C 1523.75 1183.488281 1511.808594 1168.128906 1491.171875 1156.289062 Z M 1523.738281 1285.390625 L 1523.738281 1267.101562 C 1523.25 1267.460938 1522.75 1267.808594 1522.261719 1268.148438 C 1521.769531 1268.488281 1521.28125 1268.828125 1520.789062 1269.171875 C 1520.289062 1269.519531 1519.789062 1269.859375 1519.28125 1270.191406 C 1518.769531 1270.519531 1518.261719 1270.859375 1517.738281 1271.191406 C 1517.230469 1271.53125 1516.710938 1271.859375 1516.179688 1272.191406 C 1515.660156 1272.519531 1515.128906 1272.851562 1514.601562 1273.171875 C 1513.539062 1273.828125 1512.460938 1274.46875 1511.371094 1275.101562 C 1511.339844 1275.109375 1511.308594 1275.128906 1511.28125 1275.148438 C 1480.730469 1292.628906 1440.648438 1302.269531 1398.441406 1302.269531 C 1356.21875 1302.269531 1316.148438 1292.628906 1285.589844 1275.148438 C 1285.53125 1275.109375 1285.46875 1275.078125 1285.421875 1275.039062 C 1283.960938 1274.179688 1282.519531 1273.308594 1281.121094 1272.429688 C 1280.648438 1272.128906 1280.191406 1271.828125 1279.71875 1271.539062 C 1279.261719 1271.238281 1278.800781 1270.941406 1278.351562 1270.640625 C 1277.890625 1270.328125 1277.441406 1270.03125 1276.988281 1269.730469 C 1276.539062 1269.421875 1276.089844 1269.121094 1275.648438 1268.808594 C 1274.800781 1268.230469 1273.960938 1267.628906 1273.128906 1267.03125 L 1273.128906 1284.921875 C 1273.128906 1286.308594 1273.011719 1287.5 1272.921875 1288.289062 C 1273.300781 1302.820312 1285.140625 1317.859375 1305.539062 1329.648438 C 1329.921875 1343.640625 1362.949219 1351.480469 1398.5 1351.699219 C 1433.921875 1351.691406 1466.878906 1343.871094 1491.289062 1329.679688 C 1511.621094 1317.921875 1523.449219 1302.980469 1523.949219 1288.519531 C 1523.851562 1287.730469 1523.738281 1286.648438 1523.738281 1285.390625 Z M 1523.738281 1267.101562 C 1523.25 1267.460938 1522.75 1267.808594 1522.261719 1268.148438 C 1521.769531 1268.488281 1521.28125 1268.828125 1520.789062 1269.171875 C 1520.289062 1269.519531 1519.789062 1269.859375 1519.28125 1270.191406 C 1518.769531 1270.519531 1518.261719 1270.859375 1517.738281 1271.191406 C 1517.230469 1271.53125 1516.710938 1271.859375 1516.179688 1272.191406 C 1515.660156 1272.519531 1515.128906 1272.851562 1514.601562 1273.171875 C 1513.539062 1273.828125 1512.460938 1274.46875 1511.371094 1275.101562 C 1511.339844 1275.109375 1511.308594 1275.128906 1511.28125 1275.148438 C 1480.730469 1292.628906 1440.648438 1302.269531 1398.441406 1302.269531 C 1356.21875 1302.269531 1316.148438 1292.628906 1285.589844 1275.148438 C 1285.53125 1275.109375 1285.46875 1275.078125 1285.421875 1275.039062 C 1283.960938 1274.179688 1282.519531 1273.308594 1281.121094 1272.429688 C 1280.648438 1272.128906 1280.191406 1271.828125 1279.71875 1271.539062 C 1279.261719 1271.238281 1278.800781 1270.941406 1278.351562 1270.640625 C 1277.890625 1270.328125 1277.441406 1270.03125 1276.988281 1269.730469 C 1276.539062 1269.421875 1276.089844 1269.121094 1275.648438 1268.808594 C 1274.800781 1268.230469 1273.960938 1267.628906 1273.128906 1267.03125 L 1273.128906 1284.921875 C 1273.128906 1286.308594 1273.011719 1287.5 1272.921875 1288.289062 C 1273.300781 1302.820312 1285.140625 1317.859375 1305.539062 1329.648438 C 1329.921875 1343.640625 1362.949219 1351.480469 1398.5 1351.699219 C 1433.921875 1351.691406 1466.878906 1343.871094 1491.289062 1329.679688 C 1511.621094 1317.921875 1523.449219 1302.980469 1523.949219 1288.519531 C 1523.851562 1287.730469 1523.738281 1286.648438 1523.738281 1285.390625 Z M 1491.171875 1156.289062 C 1467.121094 1142.390625 1433.261719 1134.429688 1398.210938 1134.429688 C 1363.308594 1134.429688 1329.53125 1142.390625 1305.539062 1156.261719 C 1284.46875 1168.339844 1272.910156 1183.28125 1272.910156 1198.351562 C 1272.910156 1199.148438 1272.949219 1199.96875 1273.03125 1200.769531 C 1273.03125 1200.839844 1273.039062 1200.898438 1273.050781 1200.960938 C 1274.300781 1214.878906 1285.851562 1228.910156 1305.550781 1240.480469 C 1329.789062 1254.328125 1363.640625 1262.269531 1398.441406 1262.269531 C 1433.769531 1262.269531 1466.761719 1254.519531 1491.359375 1240.460938 C 1510.738281 1229.230469 1522.570312 1214.828125 1523.828125 1200.960938 C 1523.828125 1200.898438 1523.839844 1200.839844 1523.839844 1200.769531 C 1523.921875 1200 1523.960938 1199.21875 1523.96875 1198.449219 C 1523.75 1183.488281 1511.808594 1168.128906 1491.171875 1156.289062 Z M 1886.480469 1058.46875 C 1856.210938 1075.96875 1816.109375 1085.628906 1773.628906 1085.628906 C 1731.300781 1085.628906 1691.269531 1075.96875 1660.941406 1058.429688 C 1660.378906 1058.109375 1659.828125 1057.78125 1659.28125 1057.449219 C 1658.730469 1057.121094 1658.179688 1056.789062 1657.640625 1056.460938 C 1656.011719 1055.460938 1654.421875 1054.441406 1652.871094 1053.398438 C 1652.429688 1053.109375 1652 1052.820312 1651.570312 1052.519531 C 1650.96875 1052.121094 1650.390625 1051.710938 1649.800781 1051.300781 C 1649.300781 1050.949219 1648.808594 1050.601562 1648.320312 1050.238281 L 1648.320312 1068.28125 C 1648.320312 1069.671875 1648.210938 1070.859375 1648.109375 1071.648438 C 1648.5 1086.199219 1660.398438 1101.21875 1680.898438 1112.980469 C 1704.949219 1126.890625 1738.730469 1134.839844 1773.628906 1134.839844 C 1808.679688 1134.839844 1842.539062 1126.890625 1866.53125 1113.019531 C 1887.148438 1101.191406 1898.671875 1086.621094 1899.148438 1071.878906 C 1899.050781 1071.078125 1898.941406 1069.988281 1898.941406 1068.71875 L 1898.941406 1050.480469 C 1895.050781 1053.28125 1890.890625 1055.941406 1886.480469 1058.46875 Z M 1680.78125 939.601562 C 1659.691406 951.789062 1648.101562 966.75 1648.101562 981.75 C 1648.101562 982.351562 1648.140625 982.96875 1648.199219 983.550781 C 1648.21875 983.671875 1648.230469 983.800781 1648.238281 983.929688 C 1649.550781 998.140625 1661.179688 1012.300781 1681 1023.820312 C 1704.949219 1037.671875 1738.730469 1045.628906 1773.628906 1045.628906 C 1808.679688 1045.628906 1842.539062 1037.671875 1866.53125 1023.800781 C 1886.230469 1012.519531 1897.738281 998.53125 1899.019531 984.359375 C 1899.03125 984.300781 1899.03125 984.230469 1899.039062 984.171875 C 1899.121094 983.359375 1899.160156 982.550781 1899.160156 981.75 C 1899.160156 966.960938 1887.269531 951.609375 1866.53125 939.621094 C 1842.148438 925.628906 1809.109375 917.789062 1773.570312 917.570312 C 1738.140625 917.578125 1705.191406 925.398438 1680.78125 939.601562 Z M 1563.96875 1287.558594 C 1563.96875 1317.421875 1545.28125 1344.671875 1511.351562 1364.28125 C 1480.960938 1381.960938 1440.839844 1391.699219 1398.441406 1391.699219 L 1398.320312 1391.699219 C 1355.960938 1391.449219 1315.921875 1381.71875 1285.578125 1364.320312 C 1252.078125 1344.949219 1232.910156 1316.988281 1232.910156 1287.558594 C 1232.910156 1286.121094 1233.03125 1284.898438 1233.128906 1284.109375 L 1233.128906 1203.640625 C 1232.980469 1201.878906 1232.910156 1200.101562 1232.910156 1198.351562 C 1232.910156 1168.339844 1251.609375 1141.078125 1285.578125 1121.601562 C 1315.851562 1104.089844 1355.878906 1094.429688 1398.210938 1094.429688 C 1440.691406 1094.429688 1480.789062 1104.089844 1511.128906 1121.628906 C 1544.378906 1140.699219 1563.660156 1168.601562 1563.960938 1198.140625 C 1563.96875 1198.210938 1563.96875 1198.28125 1563.96875 1198.351562 C 1563.96875 1200.101562 1563.890625 1201.878906 1563.738281 1203.640625 L 1563.738281 1284.289062 C 1563.851562 1285.101562 1563.96875 1286.238281 1563.96875 1287.558594 Z M 1938.539062 972.609375 C 1938.949219 975.628906 1939.160156 978.679688 1939.160156 981.75 C 1939.160156 983.5 1939.089844 985.28125 1938.941406 987.039062 L 1938.941406 1067.648438 C 1939.050781 1068.449219 1939.160156 1069.589844 1939.160156 1070.929688 C 1939.160156 1100.941406 1920.460938 1128.199219 1886.488281 1147.679688 C 1856.210938 1165.179688 1816.109375 1174.839844 1773.628906 1174.839844 C 1731.300781 1174.839844 1691.269531 1165.179688 1660.941406 1147.648438 C 1627.378906 1128.398438 1608.101562 1100.421875 1608.101562 1070.929688 C 1608.101562 1069.488281 1608.230469 1068.269531 1608.320312 1067.488281 L 1608.320312 986.601562 C 1608.171875 984.988281 1608.101562 983.359375 1608.101562 981.75 C 1608.101562 951.859375 1626.789062 924.601562 1660.710938 904.988281 C 1691.109375 887.320312 1731.230469 877.570312 1773.628906 877.570312 L 1773.941406 877.570312 L 1563.289062 755.941406 C 1563.699219 758.890625 1563.929688 761.871094 1563.960938 764.859375 C 1563.96875 764.929688 1563.96875 765 1563.96875 765.070312 C 1563.96875 766.820312 1563.890625 768.609375 1563.738281 770.371094 L 1563.738281 851 C 1563.839844 851.769531 1563.96875 852.921875 1563.96875 854.289062 C 1563.96875 884.148438 1545.28125 911.390625 1511.351562 931.011719 C 1480.761719 948.558594 1440.679688 958.210938 1398.441406 958.210938 C 1356.191406 958.210938 1316.109375 948.558594 1285.578125 931.039062 C 1252.078125 911.679688 1232.910156 883.710938 1232.910156 854.289062 C 1232.910156 852.839844 1233.03125 851.621094 1233.128906 850.839844 L 1233.128906 770.371094 C 1232.980469 768.609375 1232.910156 766.828125 1232.910156 765.070312 C 1232.910156 762.019531 1233.101562 759 1233.488281 756.011719 L 1033.25 871.628906 L 1022.949219 877.570312 L 1023.140625 877.570312 C 1065.488281 877.820312 1105.53125 887.550781 1135.878906 904.960938 C 1167.171875 922.898438 1185.660156 947.761719 1188.210938 975.179688 L 1188.210938 975.210938 C 1188.289062 975.96875 1188.339844 976.738281 1188.390625 977.5 C 1188.5 978.898438 1188.550781 980.328125 1188.550781 981.75 L 1188.550781 1070.929688 C 1188.550781 1100.871094 1169.941406 1128.109375 1136.160156 1147.648438 C 1105.519531 1165.21875 1066.011719 1174.851562 1024.699219 1174.851562 C 1024.199219 1174.851562 1023.699219 1174.851562 1023.191406 1174.839844 C 980.960938 1174.839844 940.898438 1165.191406 910.378906 1147.679688 C 876.910156 1128.480469 857.710938 1100.5 857.710938 1070.929688 L 857.710938 981.75 C 857.710938 981.46875 857.710938 981.199219 857.730469 980.921875 C 857.871094 977.351562 858.960938 974.011719 860.738281 971.171875 L 858.820312 972.28125 L 858.808594 972.28125 L 858.328125 972.558594 L 687.839844 1070.941406 L 1033.238281 1270.261719 L 1398.441406 1481.128906 L 2108.839844 1070.941406 Z M 1523.738281 1267.101562 C 1523.25 1267.460938 1522.75 1267.808594 1522.261719 1268.148438 C 1521.769531 1268.488281 1521.28125 1268.828125 1520.789062 1269.171875 C 1520.289062 1269.519531 1519.789062 1269.859375 1519.28125 1270.191406 C 1518.769531 1270.519531 1518.261719 1270.859375 1517.738281 1271.191406 C 1517.230469 1271.53125 1516.710938 1271.859375 1516.179688 1272.191406 C 1515.660156 1272.519531 1515.128906 1272.851562 1514.601562 1273.171875 C 1513.539062 1273.828125 1512.460938 1274.46875 1511.371094 1275.101562 C 1511.339844 1275.109375 1511.308594 1275.128906 1511.28125 1275.148438 C 1480.730469 1292.628906 1440.648438 1302.269531 1398.441406 1302.269531 C 1356.21875 1302.269531 1316.148438 1292.628906 1285.589844 1275.148438 C 1285.53125 1275.109375 1285.46875 1275.078125 1285.421875 1275.039062 C 1283.960938 1274.179688 1282.519531 1273.308594 1281.121094 1272.429688 C 1280.648438 1272.128906 1280.191406 1271.828125 1279.71875 1271.539062 C 1279.261719 1271.238281 1278.800781 1270.941406 1278.351562 1270.640625 C 1277.890625 1270.328125 1277.441406 1270.03125 1276.988281 1269.730469 C 1276.539062 1269.421875 1276.089844 1269.121094 1275.648438 1268.808594 C 1274.800781 1268.230469 1273.960938 1267.628906 1273.128906 1267.03125 L 1273.128906 1284.921875 C 1273.128906 1286.308594 1273.011719 1287.5 1272.921875 1288.289062 C 1273.300781 1302.820312 1285.140625 1317.859375 1305.539062 1329.648438 C 1329.921875 1343.640625 1362.949219 1351.480469 1398.5 1351.699219 C 1433.921875 1351.691406 1466.878906 1343.871094 1491.289062 1329.679688 C 1511.621094 1317.921875 1523.449219 1302.980469 1523.949219 1288.519531 C 1523.851562 1287.730469 1523.738281 1286.648438 1523.738281 1285.390625 Z M 1273.050781 1200.960938 C 1274.300781 1214.878906 1285.851562 1228.910156 1305.550781 1240.480469 C 1329.789062 1254.328125 1363.640625 1262.269531 1398.441406 1262.269531 C 1433.769531 1262.269531 1466.761719 1254.519531 1491.359375 1240.460938 C 1510.738281 1229.230469 1522.570312 1214.828125 1523.828125 1200.960938 C 1523.828125 1200.898438 1523.839844 1200.839844 1523.839844 1200.769531 C 1523.921875 1200 1523.960938 1199.21875 1523.96875 1198.449219 C 1523.75 1183.488281 1511.808594 1168.128906 1491.171875 1156.289062 C 1467.121094 1142.390625 1433.261719 1134.429688 1398.210938 1134.429688 C 1363.308594 1134.429688 1329.53125 1142.390625 1305.539062 1156.261719 C 1284.46875 1168.339844 1272.910156 1183.28125 1272.910156 1198.351562 C 1272.910156 1199.148438 1272.949219 1199.96875 1273.03125 1200.769531 C 1273.03125 1200.839844 1273.039062 1200.898438 1273.050781 1200.960938 Z M 1491.191406 723.058594 C 1491.160156 723.039062 1491.128906 723.03125 1491.101562 723.011719 C 1466.878906 708.980469 1433.03125 700.929688 1398.210938 700.929688 C 1363.269531 700.929688 1329.53125 708.960938 1305.640625 722.960938 C 1305.578125 722.988281 1305.519531 723.03125 1305.460938 723.058594 C 1284.46875 735.078125 1272.910156 750 1272.910156 765.070312 C 1272.910156 765.871094 1272.949219 766.691406 1273.03125 767.488281 C 1273.03125 767.558594 1273.039062 767.621094 1273.050781 767.679688 C 1274.289062 781.421875 1286.128906 795.730469 1305.53125 806.941406 C 1329.648438 820.960938 1363.5 828.988281 1398.441406 828.988281 C 1433.800781 828.988281 1466.820312 821.21875 1491.390625 807.128906 C 1510.730469 795.960938 1522.570312 781.570312 1523.828125 767.691406 C 1523.828125 767.621094 1523.839844 767.558594 1523.839844 767.488281 C 1523.921875 766.71875 1523.960938 765.941406 1523.96875 765.171875 C 1523.75 750.210938 1511.820312 734.871094 1491.191406 723.058594 Z M 1491.171875 1156.289062 C 1467.121094 1142.390625 1433.261719 1134.429688 1398.210938 1134.429688 C 1363.308594 1134.429688 1329.53125 1142.390625 1305.539062 1156.261719 C 1284.46875 1168.339844 1272.910156 1183.28125 1272.910156 1198.351562 C 1272.910156 1199.148438 1272.949219 1199.96875 1273.03125 1200.769531 C 1273.03125 1200.839844 1273.039062 1200.898438 1273.050781 1200.960938 C 1274.300781 1214.878906 1285.851562 1228.910156 1305.550781 1240.480469 C 1329.789062 1254.328125 1363.640625 1262.269531 1398.441406 1262.269531 C 1433.769531 1262.269531 1466.761719 1254.519531 1491.359375 1240.460938 C 1510.738281 1229.230469 1522.570312 1214.828125 1523.828125 1200.960938 C 1523.828125 1200.898438 1523.839844 1200.839844 1523.839844 1200.769531 C 1523.921875 1200 1523.960938 1199.21875 1523.96875 1198.449219 C 1523.75 1183.488281 1511.808594 1168.128906 1491.171875 1156.289062 Z M 1523.738281 851.859375 L 1523.738281 833.800781 C 1519.871094 836.589844 1515.730469 839.261719 1511.351562 841.789062 C 1480.761719 859.339844 1440.679688 868.988281 1398.441406 868.988281 C 1356.03125 868.988281 1315.910156 859.238281 1285.480469 841.539062 C 1284.511719 840.980469 1283.539062 840.410156 1282.589844 839.828125 C 1282.121094 839.539062 1281.648438 839.25 1281.179688 838.960938 C 1280.710938 838.671875 1280.238281 838.378906 1279.78125 838.078125 C 1278.808594 837.46875 1277.859375 836.839844 1276.921875 836.21875 C 1276.511719 835.941406 1276.101562 835.671875 1275.699219 835.390625 C 1275.230469 835.058594 1274.761719 834.738281 1274.289062 834.410156 C 1273.898438 834.128906 1273.511719 833.859375 1273.128906 833.578125 L 1273.128906 851.640625 C 1273.128906 853.039062 1273.011719 854.21875 1272.921875 855.011719 C 1273.300781 869.550781 1285.140625 884.578125 1305.539062 896.378906 C 1329.699219 910.238281 1363.578125 918.210938 1398.441406 918.210938 C 1433.800781 918.210938 1466.820312 910.441406 1491.390625 896.339844 C 1511.660156 884.628906 1523.480469 869.671875 1523.949219 855.179688 C 1523.851562 854.359375 1523.738281 853.210938 1523.738281 851.859375 Z M 1523.738281 1285.390625 L 1523.738281 1267.101562 C 1523.25 1267.460938 1522.75 1267.808594 1522.261719 1268.148438 C 1521.769531 1268.488281 1521.28125 1268.828125 1520.789062 1269.171875 C 1520.289062 1269.519531 1519.789062 1269.859375 1519.28125 1270.191406 C 1518.769531 1270.519531 1518.261719 1270.859375 1517.738281 1271.191406 C 1517.230469 1271.53125 1516.710938 1271.859375 1516.179688 1272.191406 C 1515.660156 1272.519531 1515.128906 1272.851562 1514.601562 1273.171875 C 1513.539062 1273.828125 1512.460938 1274.46875 1511.371094 1275.101562 C 1511.339844 1275.109375 1511.308594 1275.128906 1511.28125 1275.148438 C 1480.730469 1292.628906 1440.648438 1302.269531 1398.441406 1302.269531 C 1356.21875 1302.269531 1316.148438 1292.628906 1285.589844 1275.148438 C 1285.53125 1275.109375 1285.46875 1275.078125 1285.421875 1275.039062 C 1283.960938 1274.179688 1282.519531 1273.308594 1281.121094 1272.429688 C 1280.648438 1272.128906 1280.191406 1271.828125 1279.71875 1271.539062 C 1279.261719 1271.238281 1278.800781 1270.941406 1278.351562 1270.640625 C 1277.890625 1270.328125 1277.441406 1270.03125 1276.988281 1269.730469 C 1276.539062 1269.421875 1276.089844 1269.121094 1275.648438 1268.808594 C 1274.800781 1268.230469 1273.960938 1267.628906 1273.128906 1267.03125 L 1273.128906 1284.921875 C 1273.128906 1286.308594 1273.011719 1287.5 1272.921875 1288.289062 C 1273.300781 1302.820312 1285.140625 1317.859375 1305.539062 1329.648438 C 1329.921875 1343.640625 1362.949219 1351.480469 1398.5 1351.699219 C 1433.921875 1351.691406 1466.878906 1343.871094 1491.289062 1329.679688 C 1511.621094 1317.921875 1523.449219 1302.980469 1523.949219 1288.519531 C 1523.851562 1287.730469 1523.738281 1286.648438 1523.738281 1285.390625 Z M 1398.441406 660.761719 L 1398.140625 660.929688 L 1398.738281 660.929688 Z M 1523.738281 1285.390625 L 1523.738281 1267.101562 C 1523.25 1267.460938 1522.75 1267.808594 1522.261719 1268.148438 C 1521.769531 1268.488281 1521.28125 1268.828125 1520.789062 1269.171875 C 1520.289062 1269.519531 1519.789062 1269.859375 1519.28125 1270.191406 C 1518.769531 1270.519531 1518.261719 1270.859375 1517.738281 1271.191406 C 1517.230469 1271.53125 1516.710938 1271.859375 1516.179688 1272.191406 C 1515.660156 1272.519531 1515.128906 1272.851562 1514.601562 1273.171875 C 1513.539062 1273.828125 1512.460938 1274.46875 1511.371094 1275.101562 C 1511.339844 1275.109375 1511.308594 1275.128906 1511.28125 1275.148438 C 1480.730469 1292.628906 1440.648438 1302.269531 1398.441406 1302.269531 C 1356.21875 1302.269531 1316.148438 1292.628906 1285.589844 1275.148438 C 1285.53125 1275.109375 1285.46875 1275.078125 1285.421875 1275.039062 C 1283.960938 1274.179688 1282.519531 1273.308594 1281.121094 1272.429688 C 1280.648438 1272.128906 1280.191406 1271.828125 1279.71875 1271.539062 C 1279.261719 1271.238281 1278.800781 1270.941406 1278.351562 1270.640625 C 1277.890625 1270.328125 1277.441406 1270.03125 1276.988281 1269.730469 C 1276.539062 1269.421875 1276.089844 1269.121094 1275.648438 1268.808594 C 1274.800781 1268.230469 1273.960938 1267.628906 1273.128906 1267.03125 L 1273.128906 1284.921875 C 1273.128906 1286.308594 1273.011719 1287.5 1272.921875 1288.289062 C 1273.300781 1302.820312 1285.140625 1317.859375 1305.539062 1329.648438 C 1329.921875 1343.640625 1362.949219 1351.480469 1398.5 1351.699219 C 1433.921875 1351.691406 1466.878906 1343.871094 1491.289062 1329.679688 C 1511.621094 1317.921875 1523.449219 1302.980469 1523.949219 1288.519531 C 1523.851562 1287.730469 1523.738281 1286.648438 1523.738281 1285.390625 Z M 1491.171875 1156.289062 C 1467.121094 1142.390625 1433.261719 1134.429688 1398.210938 1134.429688 C 1363.308594 1134.429688 1329.53125 1142.390625 1305.539062 1156.261719 C 1284.46875 1168.339844 1272.910156 1183.28125 1272.910156 1198.351562 C 1272.910156 1199.148438 1272.949219 1199.96875 1273.03125 1200.769531 C 1273.03125 1200.839844 1273.039062 1200.898438 1273.050781 1200.960938 C 1274.300781 1214.878906 1285.851562 1228.910156 1305.550781 1240.480469 C 1329.789062 1254.328125 1363.640625 1262.269531 1398.441406 1262.269531 C 1433.769531 1262.269531 1466.761719 1254.519531 1491.359375 1240.460938 C 1510.738281 1229.230469 1522.570312 1214.828125 1523.828125 1200.960938 C 1523.828125 1200.898438 1523.839844 1200.839844 1523.839844 1200.769531 C 1523.921875 1200 1523.960938 1199.21875 1523.96875 1198.449219 C 1523.75 1183.488281 1511.808594 1168.128906 1491.171875 1156.289062 Z M 1491.171875 1156.289062 C 1467.121094 1142.390625 1433.261719 1134.429688 1398.210938 1134.429688 C 1363.308594 1134.429688 1329.53125 1142.390625 1305.539062 1156.261719 C 1284.46875 1168.339844 1272.910156 1183.28125 1272.910156 1198.351562 C 1272.910156 1199.148438 1272.949219 1199.96875 1273.03125 1200.769531 C 1273.03125 1200.839844 1273.039062 1200.898438 1273.050781 1200.960938 C 1274.300781 1214.878906 1285.851562 1228.910156 1305.550781 1240.480469 C 1329.789062 1254.328125 1363.640625 1262.269531 1398.441406 1262.269531 C 1433.769531 1262.269531 1466.761719 1254.519531 1491.359375 1240.460938 C 1510.738281 1229.230469 1522.570312 1214.828125 1523.828125 1200.960938 C 1523.828125 1200.898438 1523.839844 1200.839844 1523.839844 1200.769531 C 1523.921875 1200 1523.960938 1199.21875 1523.96875 1198.449219 C 1523.75 1183.488281 1511.808594 1168.128906 1491.171875 1156.289062 Z M 1523.738281 1285.390625 L 1523.738281 1267.101562 C 1523.25 1267.460938 1522.75 1267.808594 1522.261719 1268.148438 C 1521.769531 1268.488281 1521.28125 1268.828125 1520.789062 1269.171875 C 1520.289062 1269.519531 1519.789062 1269.859375 1519.28125 1270.191406 C 1518.769531 1270.519531 1518.261719 1270.859375 1517.738281 1271.191406 C 1517.230469 1271.53125 1516.710938 1271.859375 1516.179688 1272.191406 C 1515.660156 1272.519531 1515.128906 1272.851562 1514.601562 1273.171875 C 1513.539062 1273.828125 1512.460938 1274.46875 1511.371094 1275.101562 C 1511.339844 1275.109375 1511.308594 1275.128906 1511.28125 1275.148438 C 1480.730469 1292.628906 1440.648438 1302.269531 1398.441406 1302.269531 C 1356.21875 1302.269531 1316.148438 1292.628906 1285.589844 1275.148438 C 1285.53125 1275.109375 1285.46875 1275.078125 1285.421875 1275.039062 C 1283.960938 1274.179688 1282.519531 1273.308594 1281.121094 1272.429688 C 1280.648438 1272.128906 1280.191406 1271.828125 1279.71875 1271.539062 C 1279.261719 1271.238281 1278.800781 1270.941406 1278.351562 1270.640625 C 1277.890625 1270.328125 1277.441406 1270.03125 1276.988281 1269.730469 C 1276.539062 1269.421875 1276.089844 1269.121094 1275.648438 1268.808594 C 1274.800781 1268.230469 1273.960938 1267.628906 1273.128906 1267.03125 L 1273.128906 1284.921875 C 1273.128906 1286.308594 1273.011719 1287.5 1272.921875 1288.289062 C 1273.300781 1302.820312 1285.140625 1317.859375 1305.539062 1329.648438 C 1329.921875 1343.640625 1362.949219 1351.480469 1398.5 1351.699219 C 1433.921875 1351.691406 1466.878906 1343.871094 1491.289062 1329.679688 C 1511.621094 1317.921875 1523.449219 1302.980469 1523.949219 1288.519531 C 1523.851562 1287.730469 1523.738281 1286.648438 1523.738281 1285.390625 Z M 1148.5 980.378906 L 1148.46875 979.988281 C 1147.648438 965.730469 1135.808594 951.03125 1115.96875 939.648438 C 1091.53125 925.628906 1058.5 917.789062 1022.960938 917.570312 C 988.320312 917.578125 954.558594 925.621094 930.339844 939.621094 C 910.148438 951.199219 898.609375 965.519531 897.789062 979.980469 C 897.78125 980.109375 897.769531 980.238281 897.761719 980.378906 C 897.730469 980.808594 897.710938 981.300781 897.710938 981.75 C 897.710938 996.621094 909.289062 1011.550781 930.328125 1023.789062 C 954.898438 1037.871094 987.890625 1045.628906 1023.238281 1045.628906 C 1058.101562 1045.628906 1091.980469 1037.660156 1116.199219 1023.769531 C 1136.730469 1011.890625 1148.550781 996.558594 1148.550781 981.75 C 1148.550781 981.289062 1148.53125 980.800781 1148.5 980.378906 Z M 1147.96875 1050.808594 C 1144.261719 1053.480469 1140.320312 1056.019531 1136.160156 1058.429688 C 1105.558594 1075.980469 1065.480469 1085.628906 1023.238281 1085.628906 C 981 1085.628906 940.910156 1075.980469 910.378906 1058.460938 C 910.339844 1058.441406 910.308594 1058.421875 910.28125 1058.398438 C 907.628906 1056.859375 905.078125 1055.28125 902.621094 1053.648438 C 902.230469 1053.390625 901.851562 1053.140625 901.46875 1052.878906 C 900.871094 1052.480469 900.289062 1052.078125 899.710938 1051.671875 C 899.230469 1051.339844 898.761719 1051.011719 898.289062 1050.671875 C 898.089844 1050.53125 897.898438 1050.390625 897.710938 1050.261719 L 897.710938 1070.929688 C 897.710938 1085.78125 909.578125 1101.109375 930.28125 1112.980469 C 954.859375 1127.078125 987.871094 1134.839844 1023.238281 1134.839844 L 1023.359375 1134.839844 C 1057.769531 1135.050781 1091.621094 1127.078125 1116.199219 1112.980469 C 1137.039062 1100.929688 1148.550781 1085.988281 1148.550781 1070.929688 L 1148.550781 1050.398438 C 1148.359375 1050.539062 1148.171875 1050.679688 1147.96875 1050.808594 Z M 1523.738281 1285.390625 L 1523.738281 1267.101562 C 1523.25 1267.460938 1522.75 1267.808594 1522.261719 1268.148438 C 1521.769531 1268.488281 1521.28125 1268.828125 1520.789062 1269.171875 C 1520.289062 1269.519531 1519.789062 1269.859375 1519.28125 1270.191406 C 1518.769531 1270.519531 1518.261719 1270.859375 1517.738281 1271.191406 C 1517.230469 1271.53125 1516.710938 1271.859375 1516.179688 1272.191406 C 1515.660156 1272.519531 1515.128906 1272.851562 1514.601562 1273.171875 C 1513.539062 1273.828125 1512.460938 1274.46875 1511.371094 1275.101562 C 1511.339844 1275.109375 1511.308594 1275.128906 1511.28125 1275.148438 C 1480.730469 1292.628906 1440.648438 1302.269531 1398.441406 1302.269531 C 1356.21875 1302.269531 1316.148438 1292.628906 1285.589844 1275.148438 C 1285.53125 1275.109375 1285.46875 1275.078125 1285.421875 1275.039062 C 1283.960938 1274.179688 1282.519531 1273.308594 1281.121094 1272.429688 C 1280.648438 1272.128906 1280.191406 1271.828125 1279.71875 1271.539062 C 1279.261719 1271.238281 1278.800781 1270.941406 1278.351562 1270.640625 C 1277.890625 1270.328125 1277.441406 1270.03125 1276.988281 1269.730469 C 1276.539062 1269.421875 1276.089844 1269.121094 1275.648438 1268.808594 C 1274.800781 1268.230469 1273.960938 1267.628906 1273.128906 1267.03125 L 1273.128906 1284.921875 C 1273.128906 1286.308594 1273.011719 1287.5 1272.921875 1288.289062 C 1273.300781 1302.820312 1285.140625 1317.859375 1305.539062 1329.648438 C 1329.921875 1343.640625 1362.949219 1351.480469 1398.5 1351.699219 C 1433.921875 1351.691406 1466.878906 1343.871094 1491.289062 1329.679688 C 1511.621094 1317.921875 1523.449219 1302.980469 1523.949219 1288.519531 C 1523.851562 1287.730469 1523.738281 1286.648438 1523.738281 1285.390625 Z M 1491.171875 1156.289062 C 1467.121094 1142.390625 1433.261719 1134.429688 1398.210938 1134.429688 C 1363.308594 1134.429688 1329.53125 1142.390625 1305.539062 1156.261719 C 1284.46875 1168.339844 1272.910156 1183.28125 1272.910156 1198.351562 C 1272.910156 1199.148438 1272.949219 1199.96875 1273.03125 1200.769531 C 1273.03125 1200.839844 1273.039062 1200.898438 1273.050781 1200.960938 C 1274.300781 1214.878906 1285.851562 1228.910156 1305.550781 1240.480469 C 1329.789062 1254.328125 1363.640625 1262.269531 1398.441406 1262.269531 C 1433.769531 1262.269531 1466.761719 1254.519531 1491.359375 1240.460938 C 1510.738281 1229.230469 1522.570312 1214.828125 1523.828125 1200.960938 C 1523.828125 1200.898438 1523.839844 1200.839844 1523.839844 1200.769531 C 1523.921875 1200 1523.960938 1199.21875 1523.96875 1198.449219 C 1523.75 1183.488281 1511.808594 1168.128906 1491.171875 1156.289062 Z M 1491.171875 1156.289062 C 1467.121094 1142.390625 1433.261719 1134.429688 1398.210938 1134.429688 C 1363.308594 1134.429688 1329.53125 1142.390625 1305.539062 1156.261719 C 1284.46875 1168.339844 1272.910156 1183.28125 1272.910156 1198.351562 C 1272.910156 1199.148438 1272.949219 1199.96875 1273.03125 1200.769531 C 1273.03125 1200.839844 1273.039062 1200.898438 1273.050781 1200.960938 C 1274.300781 1214.878906 1285.851562 1228.910156 1305.550781 1240.480469 C 1329.789062 1254.328125 1363.640625 1262.269531 1398.441406 1262.269531 C 1433.769531 1262.269531 1466.761719 1254.519531 1491.359375 1240.460938 C 1510.738281 1229.230469 1522.570312 1214.828125 1523.828125 1200.960938 C 1523.828125 1200.898438 1523.839844 1200.839844 1523.839844 1200.769531 C 1523.921875 1200 1523.960938 1199.21875 1523.96875 1198.449219 C 1523.75 1183.488281 1511.808594 1168.128906 1491.171875 1156.289062 Z M 1523.738281 1285.390625 L 1523.738281 1267.101562 C 1523.25 1267.460938 1522.75 1267.808594 1522.261719 1268.148438 C 1521.769531 1268.488281 1521.28125 1268.828125 1520.789062 1269.171875 C 1520.289062 1269.519531 1519.789062 1269.859375 1519.28125 1270.191406 C 1518.769531 1270.519531 1518.261719 1270.859375 1517.738281 1271.191406 C 1517.230469 1271.53125 1516.710938 1271.859375 1516.179688 1272.191406 C 1515.660156 1272.519531 1515.128906 1272.851562 1514.601562 1273.171875 C 1513.539062 1273.828125 1512.460938 1274.46875 1511.371094 1275.101562 C 1511.339844 1275.109375 1511.308594 1275.128906 1511.28125 1275.148438 C 1480.730469 1292.628906 1440.648438 1302.269531 1398.441406 1302.269531 C 1356.21875 1302.269531 1316.148438 1292.628906 1285.589844 1275.148438 C 1285.53125 1275.109375 1285.46875 1275.078125 1285.421875 1275.039062 C 1283.960938 1274.179688 1282.519531 1273.308594 1281.121094 1272.429688 C 1280.648438 1272.128906 1280.191406 1271.828125 1279.71875 1271.539062 C 1279.261719 1271.238281 1278.800781 1270.941406 1278.351562 1270.640625 C 1277.890625 1270.328125 1277.441406 1270.03125 1276.988281 1269.730469 C 1276.539062 1269.421875 1276.089844 1269.121094 1275.648438 1268.808594 C 1274.800781 1268.230469 1273.960938 1267.628906 1273.128906 1267.03125 L 1273.128906 1284.921875 C 1273.128906 1286.308594 1273.011719 1287.5 1272.921875 1288.289062 C 1273.300781 1302.820312 1285.140625 1317.859375 1305.539062 1329.648438 C 1329.921875 1343.640625 1362.949219 1351.480469 1398.5 1351.699219 C 1433.921875 1351.691406 1466.878906 1343.871094 1491.289062 1329.679688 C 1511.621094 1317.921875 1523.449219 1302.980469 1523.949219 1288.519531 C 1523.851562 1287.730469 1523.738281 1286.648438 1523.738281 1285.390625 Z M 1147.96875 1050.808594 C 1144.261719 1053.480469 1140.320312 1056.019531 1136.160156 1058.429688 C 1105.558594 1075.980469 1065.480469 1085.628906 1023.238281 1085.628906 C 981 1085.628906 940.910156 1075.980469 910.378906 1058.460938 C 910.339844 1058.441406 910.308594 1058.421875 910.28125 1058.398438 C 907.628906 1056.859375 905.078125 1055.28125 902.621094 1053.648438 C 902.230469 1053.390625 901.851562 1053.140625 901.46875 1052.878906 C 900.871094 1052.480469 900.289062 1052.078125 899.710938 1051.671875 C 899.230469 1051.339844 898.761719 1051.011719 898.289062 1050.671875 C 898.089844 1050.53125 897.898438 1050.390625 897.710938 1050.261719 L 897.710938 1070.929688 C 897.710938 1085.78125 909.578125 1101.109375 930.28125 1112.980469 C 954.859375 1127.078125 987.871094 1134.839844 1023.238281 1134.839844 L 1023.359375 1134.839844 C 1057.769531 1135.050781 1091.621094 1127.078125 1116.199219 1112.980469 C 1137.039062 1100.929688 1148.550781 1085.988281 1148.550781 1070.929688 L 1148.550781 1050.398438 C 1148.359375 1050.539062 1148.171875 1050.679688 1147.96875 1050.808594 Z M 1523.738281 1285.390625 L 1523.738281 1267.101562 C 1523.25 1267.460938 1522.75 1267.808594 1522.261719 1268.148438 C 1521.769531 1268.488281 1521.28125 1268.828125 1520.789062 1269.171875 C 1520.289062 1269.519531 1519.789062 1269.859375 1519.28125 1270.191406 C 1518.769531 1270.519531 1518.261719 1270.859375 1517.738281 1271.191406 C 1517.230469 1271.53125 1516.710938 1271.859375 1516.179688 1272.191406 C 1515.660156 1272.519531 1515.128906 1272.851562 1514.601562 1273.171875 C 1513.539062 1273.828125 1512.460938 1274.46875 1511.371094 1275.101562 C 1511.339844 1275.109375 1511.308594 1275.128906 1511.28125 1275.148438 C 1480.730469 1292.628906 1440.648438 1302.269531 1398.441406 1302.269531 C 1356.21875 1302.269531 1316.148438 1292.628906 1285.589844 1275.148438 C 1285.53125 1275.109375 1285.46875 1275.078125 1285.421875 1275.039062 C 1283.960938 1274.179688 1282.519531 1273.308594 1281.121094 1272.429688 C 1280.648438 1272.128906 1280.191406 1271.828125 1279.71875 1271.539062 C 1279.261719 1271.238281 1278.800781 1270.941406 1278.351562 1270.640625 C 1277.890625 1270.328125 1277.441406 1270.03125 1276.988281 1269.730469 C 1276.539062 1269.421875 1276.089844 1269.121094 1275.648438 1268.808594 C 1274.800781 1268.230469 1273.960938 1267.628906 1273.128906 1267.03125 L 1273.128906 1284.921875 C 1273.128906 1286.308594 1273.011719 1287.5 1272.921875 1288.289062 C 1273.300781 1302.820312 1285.140625 1317.859375 1305.539062 1329.648438 C 1329.921875 1343.640625 1362.949219 1351.480469 1398.5 1351.699219 C 1433.921875 1351.691406 1466.878906 1343.871094 1491.289062 1329.679688 C 1511.621094 1317.921875 1523.449219 1302.980469 1523.949219 1288.519531 C 1523.851562 1287.730469 1523.738281 1286.648438 1523.738281 1285.390625 Z M 1491.171875 1156.289062 C 1467.121094 1142.390625 1433.261719 1134.429688 1398.210938 1134.429688 C 1363.308594 1134.429688 1329.53125 1142.390625 1305.539062 1156.261719 C 1284.46875 1168.339844 1272.910156 1183.28125 1272.910156 1198.351562 C 1272.910156 1199.148438 1272.949219 1199.96875 1273.03125 1200.769531 C 1273.03125 1200.839844 1273.039062 1200.898438 1273.050781 1200.960938 C 1274.300781 1214.878906 1285.851562 1228.910156 1305.550781 1240.480469 C 1329.789062 1254.328125 1363.640625 1262.269531 1398.441406 1262.269531 C 1433.769531 1262.269531 1466.761719 1254.519531 1491.359375 1240.460938 C 1510.738281 1229.230469 1522.570312 1214.828125 1523.828125 1200.960938 C 1523.828125 1200.898438 1523.839844 1200.839844 1523.839844 1200.769531 C 1523.921875 1200 1523.960938 1199.21875 1523.96875 1198.449219 C 1523.75 1183.488281 1511.808594 1168.128906 1491.171875 1156.289062 Z M 1491.171875 1156.289062 C 1467.121094 1142.390625 1433.261719 1134.429688 1398.210938 1134.429688 C 1363.308594 1134.429688 1329.53125 1142.390625 1305.539062 1156.261719 C 1284.46875 1168.339844 1272.910156 1183.28125 1272.910156 1198.351562 C 1272.910156 1199.148438 1272.949219 1199.96875 1273.03125 1200.769531 C 1273.03125 1200.839844 1273.039062 1200.898438 1273.050781 1200.960938 C 1274.300781 1214.878906 1285.851562 1228.910156 1305.550781 1240.480469 C 1329.789062 1254.328125 1363.640625 1262.269531 1398.441406 1262.269531 C 1433.769531 1262.269531 1466.761719 1254.519531 1491.359375 1240.460938 C 1510.738281 1229.230469 1522.570312 1214.828125 1523.828125 1200.960938 C 1523.828125 1200.898438 1523.839844 1200.839844 1523.839844 1200.769531 C 1523.921875 1200 1523.960938 1199.21875 1523.96875 1198.449219 C 1523.75 1183.488281 1511.808594 1168.128906 1491.171875 1156.289062 Z M 1523.738281 1285.390625 L 1523.738281 1267.101562 C 1523.25 1267.460938 1522.75 1267.808594 1522.261719 1268.148438 C 1521.769531 1268.488281 1521.28125 1268.828125 1520.789062 1269.171875 C 1520.289062 1269.519531 1519.789062 1269.859375 1519.28125 1270.191406 C 1518.769531 1270.519531 1518.261719 1270.859375 1517.738281 1271.191406 C 1517.230469 1271.53125 1516.710938 1271.859375 1516.179688 1272.191406 C 1515.660156 1272.519531 1515.128906 1272.851562 1514.601562 1273.171875 C 1513.539062 1273.828125 1512.460938 1274.46875 1511.371094 1275.101562 C 1511.339844 1275.109375 1511.308594 1275.128906 1511.28125 1275.148438 C 1480.730469 1292.628906 1440.648438 1302.269531 1398.441406 1302.269531 C 1356.21875 1302.269531 1316.148438 1292.628906 1285.589844 1275.148438 C 1285.53125 1275.109375 1285.46875 1275.078125 1285.421875 1275.039062 C 1283.960938 1274.179688 1282.519531 1273.308594 1281.121094 1272.429688 C 1280.648438 1272.128906 1280.191406 1271.828125 1279.71875 1271.539062 C 1279.261719 1271.238281 1278.800781 1270.941406 1278.351562 1270.640625 C 1277.890625 1270.328125 1277.441406 1270.03125 1276.988281 1269.730469 C 1276.539062 1269.421875 1276.089844 1269.121094 1275.648438 1268.808594 C 1274.800781 1268.230469 1273.960938 1267.628906 1273.128906 1267.03125 L 1273.128906 1284.921875 C 1273.128906 1286.308594 1273.011719 1287.5 1272.921875 1288.289062 C 1273.300781 1302.820312 1285.140625 1317.859375 1305.539062 1329.648438 C 1329.921875 1343.640625 1362.949219 1351.480469 1398.5 1351.699219 C 1433.921875 1351.691406 1466.878906 1343.871094 1491.289062 1329.679688 C 1511.621094 1317.921875 1523.449219 1302.980469 1523.949219 1288.519531 C 1523.851562 1287.730469 1523.738281 1286.648438 1523.738281 1285.390625 Z M 1148.5 980.378906 L 1148.46875 979.988281 C 1147.648438 965.730469 1135.808594 951.03125 1115.96875 939.648438 C 1091.53125 925.628906 1058.5 917.789062 1022.960938 917.570312 C 988.320312 917.578125 954.558594 925.621094 930.339844 939.621094 C 910.148438 951.199219 898.609375 965.519531 897.789062 979.980469 C 897.78125 980.109375 897.769531 980.238281 897.761719 980.378906 C 897.730469 980.808594 897.710938 981.300781 897.710938 981.75 C 897.710938 996.621094 909.289062 1011.550781 930.328125 1023.789062 C 954.898438 1037.871094 987.890625 1045.628906 1023.238281 1045.628906 C 1058.101562 1045.628906 1091.980469 1037.660156 1116.199219 1023.769531 C 1136.730469 1011.890625 1148.550781 996.558594 1148.550781 981.75 C 1148.550781 981.289062 1148.53125 980.800781 1148.5 980.378906 Z M 1523.738281 1285.390625 L 1523.738281 1267.101562 C 1523.25 1267.460938 1522.75 1267.808594 1522.261719 1268.148438 C 1521.769531 1268.488281 1521.28125 1268.828125 1520.789062 1269.171875 C 1520.289062 1269.519531 1519.789062 1269.859375 1519.28125 1270.191406 C 1518.769531 1270.519531 1518.261719 1270.859375 1517.738281 1271.191406 C 1517.230469 1271.53125 1516.710938 1271.859375 1516.179688 1272.191406 C 1515.660156 1272.519531 1515.128906 1272.851562 1514.601562 1273.171875 C 1513.539062 1273.828125 1512.460938 1274.46875 1511.371094 1275.101562 C 1511.339844 1275.109375 1511.308594 1275.128906 1511.28125 1275.148438 C 1480.730469 1292.628906 1440.648438 1302.269531 1398.441406 1302.269531 C 1356.21875 1302.269531 1316.148438 1292.628906 1285.589844 1275.148438 C 1285.53125 1275.109375 1285.46875 1275.078125 1285.421875 1275.039062 C 1283.960938 1274.179688 1282.519531 1273.308594 1281.121094 1272.429688 C 1280.648438 1272.128906 1280.191406 1271.828125 1279.71875 1271.539062 C 1279.261719 1271.238281 1278.800781 1270.941406 1278.351562 1270.640625 C 1277.890625 1270.328125 1277.441406 1270.03125 1276.988281 1269.730469 C 1276.539062 1269.421875 1276.089844 1269.121094 1275.648438 1268.808594 C 1274.800781 1268.230469 1273.960938 1267.628906 1273.128906 1267.03125 L 1273.128906 1284.921875 C 1273.128906 1286.308594 1273.011719 1287.5 1272.921875 1288.289062 C 1273.300781 1302.820312 1285.140625 1317.859375 1305.539062 1329.648438 C 1329.921875 1343.640625 1362.949219 1351.480469 1398.5 1351.699219 C 1433.921875 1351.691406 1466.878906 1343.871094 1491.289062 1329.679688 C 1511.621094 1317.921875 1523.449219 1302.980469 1523.949219 1288.519531 C 1523.851562 1287.730469 1523.738281 1286.648438 1523.738281 1285.390625 Z M 1491.171875 1156.289062 C 1467.121094 1142.390625 1433.261719 1134.429688 1398.210938 1134.429688 C 1363.308594 1134.429688 1329.53125 1142.390625 1305.539062 1156.261719 C 1284.46875 1168.339844 1272.910156 1183.28125 1272.910156 1198.351562 C 1272.910156 1199.148438 1272.949219 1199.96875 1273.03125 1200.769531 C 1273.03125 1200.839844 1273.039062 1200.898438 1273.050781 1200.960938 C 1274.300781 1214.878906 1285.851562 1228.910156 1305.550781 1240.480469 C 1329.789062 1254.328125 1363.640625 1262.269531 1398.441406 1262.269531 C 1433.769531 1262.269531 1466.761719 1254.519531 1491.359375 1240.460938 C 1510.738281 1229.230469 1522.570312 1214.828125 1523.828125 1200.960938 C 1523.828125 1200.898438 1523.839844 1200.839844 1523.839844 1200.769531 C 1523.921875 1200 1523.960938 1199.21875 1523.96875 1198.449219 C 1523.75 1183.488281 1511.808594 1168.128906 1491.171875 1156.289062 Z M 1491.171875 1156.289062 C 1467.121094 1142.390625 1433.261719 1134.429688 1398.210938 1134.429688 C 1363.308594 1134.429688 1329.53125 1142.390625 1305.539062 1156.261719 C 1284.46875 1168.339844 1272.910156 1183.28125 1272.910156 1198.351562 C 1272.910156 1199.148438 1272.949219 1199.96875 1273.03125 1200.769531 C 1273.03125 1200.839844 1273.039062 1200.898438 1273.050781 1200.960938 C 1274.300781 1214.878906 1285.851562 1228.910156 1305.550781 1240.480469 C 1329.789062 1254.328125 1363.640625 1262.269531 1398.441406 1262.269531 C 1433.769531 1262.269531 1466.761719 1254.519531 1491.359375 1240.460938 C 1510.738281 1229.230469 1522.570312 1214.828125 1523.828125 1200.960938 C 1523.828125 1200.898438 1523.839844 1200.839844 1523.839844 1200.769531 C 1523.921875 1200 1523.960938 1199.21875 1523.96875 1198.449219 C 1523.75 1183.488281 1511.808594 1168.128906 1491.171875 1156.289062 Z M 1523.738281 1285.390625 L 1523.738281 1267.101562 C 1523.25 1267.460938 1522.75 1267.808594 1522.261719 1268.148438 C 1521.769531 1268.488281 1521.28125 1268.828125 1520.789062 1269.171875 C 1520.289062 1269.519531 1519.789062 1269.859375 1519.28125 1270.191406 C 1518.769531 1270.519531 1518.261719 1270.859375 1517.738281 1271.191406 C 1517.230469 1271.53125 1516.710938 1271.859375 1516.179688 1272.191406 C 1515.660156 1272.519531 1515.128906 1272.851562 1514.601562 1273.171875 C 1513.539062 1273.828125 1512.460938 1274.46875 1511.371094 1275.101562 C 1511.339844 1275.109375 1511.308594 1275.128906 1511.28125 1275.148438 C 1480.730469 1292.628906 1440.648438 1302.269531 1398.441406 1302.269531 C 1356.21875 1302.269531 1316.148438 1292.628906 1285.589844 1275.148438 C 1285.53125 1275.109375 1285.46875 1275.078125 1285.421875 1275.039062 C 1283.960938 1274.179688 1282.519531 1273.308594 1281.121094 1272.429688 C 1280.648438 1272.128906 1280.191406 1271.828125 1279.71875 1271.539062 C 1279.261719 1271.238281 1278.800781 1270.941406 1278.351562 1270.640625 C 1277.890625 1270.328125 1277.441406 1270.03125 1276.988281 1269.730469 C 1276.539062 1269.421875 1276.089844 1269.121094 1275.648438 1268.808594 C 1274.800781 1268.230469 1273.960938 1267.628906 1273.128906 1267.03125 L 1273.128906 1284.921875 C 1273.128906 1286.308594 1273.011719 1287.5 1272.921875 1288.289062 C 1273.300781 1302.820312 1285.140625 1317.859375 1305.539062 1329.648438 C 1329.921875 1343.640625 1362.949219 1351.480469 1398.5 1351.699219 C 1433.921875 1351.691406 1466.878906 1343.871094 1491.289062 1329.679688 C 1511.621094 1317.921875 1523.449219 1302.980469 1523.949219 1288.519531 C 1523.851562 1287.730469 1523.738281 1286.648438 1523.738281 1285.390625 Z M 1523.738281 1285.390625 L 1523.738281 1267.101562 C 1523.25 1267.460938 1522.75 1267.808594 1522.261719 1268.148438 C 1521.769531 1268.488281 1521.28125 1268.828125 1520.789062 1269.171875 C 1520.289062 1269.519531 1519.789062 1269.859375 1519.28125 1270.191406 C 1518.769531 1270.519531 1518.261719 1270.859375 1517.738281 1271.191406 C 1517.230469 1271.53125 1516.710938 1271.859375 1516.179688 1272.191406 C 1515.660156 1272.519531 1515.128906 1272.851562 1514.601562 1273.171875 C 1513.539062 1273.828125 1512.460938 1274.46875 1511.371094 1275.101562 C 1511.339844 1275.109375 1511.308594 1275.128906 1511.28125 1275.148438 C 1480.730469 1292.628906 1440.648438 1302.269531 1398.441406 1302.269531 C 1356.21875 1302.269531 1316.148438 1292.628906 1285.589844 1275.148438 C 1285.53125 1275.109375 1285.46875 1275.078125 1285.421875 1275.039062 C 1283.960938 1274.179688 1282.519531 1273.308594 1281.121094 1272.429688 C 1280.648438 1272.128906 1280.191406 1271.828125 1279.71875 1271.539062 C 1279.261719 1271.238281 1278.800781 1270.941406 1278.351562 1270.640625 C 1277.890625 1270.328125 1277.441406 1270.03125 1276.988281 1269.730469 C 1276.539062 1269.421875 1276.089844 1269.121094 1275.648438 1268.808594 C 1274.800781 1268.230469 1273.960938 1267.628906 1273.128906 1267.03125 L 1273.128906 1284.921875 C 1273.128906 1286.308594 1273.011719 1287.5 1272.921875 1288.289062 C 1273.300781 1302.820312 1285.140625 1317.859375 1305.539062 1329.648438 C 1329.921875 1343.640625 1362.949219 1351.480469 1398.5 1351.699219 C 1433.921875 1351.691406 1466.878906 1343.871094 1491.289062 1329.679688 C 1511.621094 1317.921875 1523.449219 1302.980469 1523.949219 1288.519531 C 1523.851562 1287.730469 1523.738281 1286.648438 1523.738281 1285.390625 Z M 1491.171875 1156.289062 C 1467.121094 1142.390625 1433.261719 1134.429688 1398.210938 1134.429688 C 1363.308594 1134.429688 1329.53125 1142.390625 1305.539062 1156.261719 C 1284.46875 1168.339844 1272.910156 1183.28125 1272.910156 1198.351562 C 1272.910156 1199.148438 1272.949219 1199.96875 1273.03125 1200.769531 C 1273.03125 1200.839844 1273.039062 1200.898438 1273.050781 1200.960938 C 1274.300781 1214.878906 1285.851562 1228.910156 1305.550781 1240.480469 C 1329.789062 1254.328125 1363.640625 1262.269531 1398.441406 1262.269531 C 1433.769531 1262.269531 1466.761719 1254.519531 1491.359375 1240.460938 C 1510.738281 1229.230469 1522.570312 1214.828125 1523.828125 1200.960938 C 1523.828125 1200.898438 1523.839844 1200.839844 1523.839844 1200.769531 C 1523.921875 1200 1523.960938 1199.21875 1523.96875 1198.449219 C 1523.75 1183.488281 1511.808594 1168.128906 1491.171875 1156.289062 Z M 1491.171875 1156.289062 C 1467.121094 1142.390625 1433.261719 1134.429688 1398.210938 1134.429688 C 1363.308594 1134.429688 1329.53125 1142.390625 1305.539062 1156.261719 C 1284.46875 1168.339844 1272.910156 1183.28125 1272.910156 1198.351562 C 1272.910156 1199.148438 1272.949219 1199.96875 1273.03125 1200.769531 C 1273.03125 1200.839844 1273.039062 1200.898438 1273.050781 1200.960938 C 1274.300781 1214.878906 1285.851562 1228.910156 1305.550781 1240.480469 C 1329.789062 1254.328125 1363.640625 1262.269531 1398.441406 1262.269531 C 1433.769531 1262.269531 1466.761719 1254.519531 1491.359375 1240.460938 C 1510.738281 1229.230469 1522.570312 1214.828125 1523.828125 1200.960938 C 1523.828125 1200.898438 1523.839844 1200.839844 1523.839844 1200.769531 C 1523.921875 1200 1523.960938 1199.21875 1523.96875 1198.449219 C 1523.75 1183.488281 1511.808594 1168.128906 1491.171875 1156.289062 Z M 1523.738281 1285.390625 L 1523.738281 1267.101562 C 1523.25 1267.460938 1522.75 1267.808594 1522.261719 1268.148438 C 1521.769531 1268.488281 1521.28125 1268.828125 1520.789062 1269.171875 C 1520.289062 1269.519531 1519.789062 1269.859375 1519.28125 1270.191406 C 1518.769531 1270.519531 1518.261719 1270.859375 1517.738281 1271.191406 C 1517.230469 1271.53125 1516.710938 1271.859375 1516.179688 1272.191406 C 1515.660156 1272.519531 1515.128906 1272.851562 1514.601562 1273.171875 C 1513.539062 1273.828125 1512.460938 1274.46875 1511.371094 1275.101562 C 1511.339844 1275.109375 1511.308594 1275.128906 1511.28125 1275.148438 C 1480.730469 1292.628906 1440.648438 1302.269531 1398.441406 1302.269531 C 1356.21875 1302.269531 1316.148438 1292.628906 1285.589844 1275.148438 C 1285.53125 1275.109375 1285.46875 1275.078125 1285.421875 1275.039062 C 1283.960938 1274.179688 1282.519531 1273.308594 1281.121094 1272.429688 C 1280.648438 1272.128906 1280.191406 1271.828125 1279.71875 1271.539062 C 1279.261719 1271.238281 1278.800781 1270.941406 1278.351562 1270.640625 C 1277.890625 1270.328125 1277.441406 1270.03125 1276.988281 1269.730469 C 1276.539062 1269.421875 1276.089844 1269.121094 1275.648438 1268.808594 C 1274.800781 1268.230469 1273.960938 1267.628906 1273.128906 1267.03125 L 1273.128906 1284.921875 C 1273.128906 1286.308594 1273.011719 1287.5 1272.921875 1288.289062 C 1273.300781 1302.820312 1285.140625 1317.859375 1305.539062 1329.648438 C 1329.921875 1343.640625 1362.949219 1351.480469 1398.5 1351.699219 C 1433.921875 1351.691406 1466.878906 1343.871094 1491.289062 1329.679688 C 1511.621094 1317.921875 1523.449219 1302.980469 1523.949219 1288.519531 C 1523.851562 1287.730469 1523.738281 1286.648438 1523.738281 1285.390625 Z M 1523.738281 1285.390625 L 1523.738281 1267.101562 C 1523.25 1267.460938 1522.75 1267.808594 1522.261719 1268.148438 C 1521.769531 1268.488281 1521.28125 1268.828125 1520.789062 1269.171875 C 1520.289062 1269.519531 1519.789062 1269.859375 1519.28125 1270.191406 C 1518.769531 1270.519531 1518.261719 1270.859375 1517.738281 1271.191406 C 1517.230469 1271.53125 1516.710938 1271.859375 1516.179688 1272.191406 C 1515.660156 1272.519531 1515.128906 1272.851562 1514.601562 1273.171875 C 1513.539062 1273.828125 1512.460938 1274.46875 1511.371094 1275.101562 C 1511.339844 1275.109375 1511.308594 1275.128906 1511.28125 1275.148438 C 1480.730469 1292.628906 1440.648438 1302.269531 1398.441406 1302.269531 C 1356.21875 1302.269531 1316.148438 1292.628906 1285.589844 1275.148438 C 1285.53125 1275.109375 1285.46875 1275.078125 1285.421875 1275.039062 C 1283.960938 1274.179688 1282.519531 1273.308594 1281.121094 1272.429688 C 1280.648438 1272.128906 1280.191406 1271.828125 1279.71875 1271.539062 C 1279.261719 1271.238281 1278.800781 1270.941406 1278.351562 1270.640625 C 1277.890625 1270.328125 1277.441406 1270.03125 1276.988281 1269.730469 C 1276.539062 1269.421875 1276.089844 1269.121094 1275.648438 1268.808594 C 1274.800781 1268.230469 1273.960938 1267.628906 1273.128906 1267.03125 L 1273.128906 1284.921875 C 1273.128906 1286.308594 1273.011719 1287.5 1272.921875 1288.289062 C 1273.300781 1302.820312 1285.140625 1317.859375 1305.539062 1329.648438 C 1329.921875 1343.640625 1362.949219 1351.480469 1398.5 1351.699219 C 1433.921875 1351.691406 1466.878906 1343.871094 1491.289062 1329.679688 C 1511.621094 1317.921875 1523.449219 1302.980469 1523.949219 1288.519531 C 1523.851562 1287.730469 1523.738281 1286.648438 1523.738281 1285.390625 Z M 1523.738281 1285.390625 L 1523.738281 1267.101562 C 1523.25 1267.460938 1522.75 1267.808594 1522.261719 1268.148438 C 1521.769531 1268.488281 1521.28125 1268.828125 1520.789062 1269.171875 C 1520.289062 1269.519531 1519.789062 1269.859375 1519.28125 1270.191406 C 1518.769531 1270.519531 1518.261719 1270.859375 1517.738281 1271.191406 C 1517.230469 1271.53125 1516.710938 1271.859375 1516.179688 1272.191406 C 1515.660156 1272.519531 1515.128906 1272.851562 1514.601562 1273.171875 C 1513.539062 1273.828125 1512.460938 1274.46875 1511.371094 1275.101562 C 1511.339844 1275.109375 1511.308594 1275.128906 1511.28125 1275.148438 C 1480.730469 1292.628906 1440.648438 1302.269531 1398.441406 1302.269531 C 1356.21875 1302.269531 1316.148438 1292.628906 1285.589844 1275.148438 C 1285.53125 1275.109375 1285.46875 1275.078125 1285.421875 1275.039062 C 1283.960938 1274.179688 1282.519531 1273.308594 1281.121094 1272.429688 C 1280.648438 1272.128906 1280.191406 1271.828125 1279.71875 1271.539062 C 1279.261719 1271.238281 1278.800781 1270.941406 1278.351562 1270.640625 C 1277.890625 1270.328125 1277.441406 1270.03125 1276.988281 1269.730469 C 1276.539062 1269.421875 1276.089844 1269.121094 1275.648438 1268.808594 C 1274.800781 1268.230469 1273.960938 1267.628906 1273.128906 1267.03125 L 1273.128906 1284.921875 C 1273.128906 1286.308594 1273.011719 1287.5 1272.921875 1288.289062 C 1273.300781 1302.820312 1285.140625 1317.859375 1305.539062 1329.648438 C 1329.921875 1343.640625 1362.949219 1351.480469 1398.5 1351.699219 C 1433.921875 1351.691406 1466.878906 1343.871094 1491.289062 1329.679688 C 1511.621094 1317.921875 1523.449219 1302.980469 1523.949219 1288.519531 C 1523.851562 1287.730469 1523.738281 1286.648438 1523.738281 1285.390625 "/>
<path fill-rule="nonzero" fill="rgb(11.376953%, 11.376953%, 10.594177%)" fill-opacity="1" d="M 2128.839844 1105.578125 L 2128.839844 1695.839844 L 1418.441406 2106.019531 L 1418.441406 1515.769531 L 2128.839844 1105.578125 "/>
<path fill-rule="nonzero" fill="rgb(40.795898%, 23.535156%, 6.665039%)" fill-opacity="1" d="M 858.820312 972.28125 L 860.738281 971.171875 C 858.960938 974.011719 857.871094 977.351562 857.730469 980.921875 C 857.710938 981.199219 857.710938 981.46875 857.710938 981.75 L 857.710938 978.839844 C 857.710938 977.628906 857.820312 976.449219 858.03125 975.308594 L 858.03125 975.300781 C 858.210938 974.261719 858.46875 973.25 858.808594 972.28125 L 858.820312 972.28125 "/>
<path fill-rule="nonzero" fill="rgb(40.795898%, 23.535156%, 6.665039%)" fill-opacity="1" d="M 1188.550781 978.839844 L 1188.550781 981.75 C 1188.550781 980.328125 1188.5 978.898438 1188.390625 977.5 C 1188.339844 976.738281 1188.289062 975.96875 1188.210938 975.210938 C 1188.441406 976.390625 1188.550781 977.601562 1188.550781 978.839844 "/>
<path fill-rule="nonzero" fill="rgb(40.795898%, 23.535156%, 6.665039%)" fill-opacity="1" d="M 858.820312 972.28125 L 858.808594 972.28125 L 858.328125 972.558594 C 858.210938 973.46875 858.109375 974.378906 858.03125 975.300781 L 858.03125 975.308594 C 857.960938 976.039062 857.898438 976.78125 857.859375 977.511719 C 857.78125 978.640625 857.730469 979.78125 857.730469 980.921875 C 857.871094 977.351562 858.960938 974.011719 860.738281 971.171875 L 858.820312 972.28125 "/>
<path fill-rule="nonzero" fill="rgb(40.795898%, 23.535156%, 6.665039%)" fill-opacity="1" d="M 1273.128906 833.578125 L 1273.128906 833.589844 C 1273.511719 833.859375 1273.898438 834.128906 1274.289062 834.410156 C 1273.898438 834.128906 1273.511719 833.859375 1273.128906 833.578125 "/>
</svg>
