<svg fill="#000000" width="25px" height="25px" viewBox="0 0 1.563 1.563" xmlns="http://www.w3.org/2000/svg" xmlns:xlink="http://www.w3.org/1999/xlink"><path d="M0.344 0.344C0.154 0.344 0 0.498 0 0.688c0 0.073 0.023 0.141 0.063 0.197v0.428C0.063 1.365 0.104 1.406 0.156 1.406h0.065c0.015 0.088 0.092 0.156 0.185 0.156s0.17 -0.068 0.185 -0.156h0.289c0.023 0 0.044 -0.009 0.06 -0.024 0.016 0.014 0.036 0.024 0.06 0.024h0.034c0.015 0.088 0.092 0.156 0.185 0.156 0.103 0 0.188 -0.084 0.188 -0.188s-0.084 -0.188 -0.188 -0.188c-0.092 0 -0.17 0.068 -0.185 0.156h-0.034c-0.006 0 -0.015 -0.004 -0.021 -0.01 -0.007 -0.007 -0.01 -0.015 -0.01 -0.021V0.719c0 -0.012 0.02 -0.031 0.031 -0.031h0.25c0.025 0 0.06 0.027 0.084 0.056l0.005 0.007H1.188c-0.05 0 -0.094 0.04 -0.094 0.094v0.125c0 0.026 0.012 0.048 0.029 0.065S1.161 1.063 1.188 1.063h0.313v0.25c0 0.012 -0.02 0.031 -0.031 0.031h-0.063v0.063h0.063c0.052 0 0.094 -0.042 0.094 -0.094v-0.3c0 -0.072 -0.05 -0.135 -0.05 -0.135l0 0 -0.13 -0.173 -0.001 -0.001C1.353 0.669 1.31 0.625 1.25 0.625h-0.25c-0.011 0 -0.021 0.002 -0.031 0.006v-0.071C0.969 0.512 0.931 0.469 0.881 0.469H0.609A0.344 0.344 0 0 0 0.344 0.344m0 0.063c0.156 0 0.281 0.126 0.281 0.281s-0.126 0.281 -0.281 0.281 -0.281 -0.126 -0.281 -0.281 0.126 -0.281 0.281 -0.281m-0.001 0.031c-0.017 0 -0.031 0.015 -0.031 0.032v0.181c-0.011 0.009 -0.018 0.023 -0.018 0.038q0 0.002 0 0.005l-0.067 0.067a0.031 0.031 0 0 0 -0.009 0.03 0.031 0.031 0 0 0 0.022 0.022 0.031 0.031 0 0 0 0.03 -0.009l0.067 -0.067A0.049 0.049 0 0 0 0.375 0.649v-0.181a0.031 0.031 0 0 0 -0.032 -0.032M0.65 0.531h0.231c0.013 0 0.025 0.013 0.025 0.028v0.758a0.026 0.026 0 0 1 -0.026 0.026h-0.289c-0.015 -0.088 -0.092 -0.156 -0.185 -0.156s-0.17 0.068 -0.185 0.156H0.156c-0.012 0 -0.031 -0.02 -0.031 -0.031V0.952A0.342 0.342 0 0 0 0.344 1.031c0.189 0 0.344 -0.154 0.344 -0.344 0 -0.056 -0.014 -0.109 -0.038 -0.156M1.188 0.813h0.198l0.076 0.101c0 0 0.029 0.049 0.035 0.086H1.188c-0.005 0 -0.014 -0.004 -0.021 -0.01S1.156 0.974 1.156 0.969v-0.125c0 -0.016 0.019 -0.031 0.031 -0.031M0.406 1.25c0.069 0 0.125 0.056 0.125 0.125s-0.056 0.125 -0.125 0.125 -0.125 -0.056 -0.125 -0.125 0.056 -0.125 0.125 -0.125m0.813 0c0.069 0 0.125 0.056 0.125 0.125s-0.056 0.125 -0.125 0.125 -0.125 -0.056 -0.125 -0.125 0.056 -0.125 0.125 -0.125"/></svg>